<?xml version="1.0" encoding="UTF-8" standalone="no" ?>
<!DOCTYPE svg PUBLIC "-//W3C//DTD SVG 1.1//EN" "http://www.w3.org/Graphics/SVG/1.1/DTD/svg11.dtd">
<svg xmlns="http://www.w3.org/2000/svg" xmlns:xlink="http://www.w3.org/1999/xlink" version="1.1" width="1080" height="1080" viewBox="0 0 1080 1080" xml:space="preserve">
<desc>Created with Fabric.js 5.2.4</desc>
<defs>
</defs>
<g transform="matrix(1 0 0 1 540 540)" id="aa7511bf-24cd-4a43-b1b5-4ab68389c630"  >
<rect style="stroke: none; stroke-width: 1; stroke-dasharray: none; stroke-linecap: butt; stroke-dashoffset: 0; stroke-linejoin: miter; stroke-miterlimit: 4; fill: rgb(255,255,255); fill-rule: nonzero; opacity: 1; visibility: hidden;" vector-effect="non-scaling-stroke"  x="-540" y="-540" rx="0" ry="0" width="1080" height="1080" />
</g>
<g transform="matrix(1 0 0 1 540 540)" id="3817d623-03ba-4b7b-8977-37d3b57441d4"  >
</g>
<g transform="matrix(0 0 0 0 0 0)"  >
<g style=""   >
</g>
</g>
<g transform="matrix(9.39 0 0 9.39 540 540)"  >
<path style="stroke: none; stroke-width: 1; stroke-dasharray: none; stroke-linecap: butt; stroke-dashoffset: 0; stroke-linejoin: miter; stroke-miterlimit: 4; fill: rgb(241,95,44); fill-opacity: 0.1; fill-rule: evenodd; opacity: 1;" vector-effect="non-scaling-stroke"  transform=" translate(-57.5, -57.5)" d="M 55.229 14.328 C 68.501 12.581999999999999 81.90299999999999 17.913 90.955 27.798000000000002 C 100.836 38.588 107.783 53.370000000000005 103.91 67.493 C 100.16799999999999 81.13499999999999 85.845 87.48299999999999 72.985 93.31299999999999 C 60.669 98.89599999999999 47.286 104.076 34.833 98.80699999999999 C 21.747999999999998 93.26999999999998 11.244999999999997 80.87599999999999 10.064999999999998 66.68799999999999 C 9.002999999999998 53.92799999999999 21.241999999999997 45.55399999999999 29.598 35.86799999999999 C 37.269999999999996 26.97299999999999 43.598 15.857999999999986 55.227999999999994 14.327999999999989" stroke-linecap="round" />
</g>
<g transform="matrix(9.39 0 0 9.39 535.06 512.74)"  >
<path style="stroke: rgb(245,145,110); stroke-width: 0; stroke-dasharray: none; stroke-linecap: butt; stroke-dashoffset: 0; stroke-linejoin: round; stroke-miterlimit: 4; fill: rgb(21,21,21); fill-rule: nonzero; opacity: 1;" vector-effect="non-scaling-stroke"  transform=" translate(-57.09, -54.71)" d="M 88.525 25.136 L 25.645000000000003 25.136 C 24.678285894534866 25.136 23.75116588201812 25.520025683131948 23.067595782575033 26.203595782575032 C 22.38402568313195 26.88716588201812 22 27.814285894534862 22 28.781 L 22 80.634 C 22.000000000000004 82.64707791313324 23.63192208686676 84.279 25.644999999999996 84.279 L 88.525 84.279 C 90.53807791313325 84.279 92.17 82.64707791313323 92.17 80.634 L 92.17 28.781 C 92.17 26.76792208686676 90.53807791313325 25.136000000000003 88.525 25.136 Z" stroke-linecap="round" />
</g>
<g transform="matrix(9.39 0 0 9.39 714.95 654.96)"  >
<path style="stroke: rgb(245,145,110); stroke-width: 2; stroke-dasharray: none; stroke-linecap: butt; stroke-dashoffset: 0; stroke-linejoin: round; stroke-miterlimit: 4; fill: none; fill-rule: nonzero; opacity: 1;" vector-effect="non-scaling-stroke"  transform=" translate(-76.13, -69.74)" d="M 92.17 55.209 L 92.17 80.269 C 92.17 81.33251812425658 91.74751907013467 82.35247731498144 90.99549819255806 83.10449819255807 C 90.24347731498143 83.85651907013468 89.22351812425657 84.27900000000001 88.16 84.27900000000001 L 60.092 84.27900000000001 C 60.092 84.27900000000001 76.132 79.26700000000001 92.17 55.20900000000001 Z" stroke-linecap="round" />
</g>
<g transform="matrix(9.39 0 0 9.39 535.27 319.7)"  >
<path style="stroke: rgb(245,145,110); stroke-width: 0; stroke-dasharray: none; stroke-linecap: butt; stroke-dashoffset: 0; stroke-linejoin: round; stroke-miterlimit: 4; fill: none; fill-rule: nonzero; opacity: 1;" vector-effect="non-scaling-stroke"  transform=" translate(-57.11, -34.15)" d="M 25.645 25.136 L 88.525 25.136 C 90.53807791313325 25.136 92.17 26.767922086866758 92.17 28.781 L 92.17 43.164 L 22.045 43.164 L 22.045 28.781 C 22.04484791117378 26.785365536517645 23.64951761954847 25.160637456788272 25.645000000000003 25.136 Z" stroke-linecap="round" />
</g>
<g transform="matrix(9.39 0 0 9.39 347.8 235.46)"  >
<path style="stroke: rgb(245,145,110); stroke-width: 2; stroke-dasharray: none; stroke-linecap: round; stroke-dashoffset: 0; stroke-linejoin: round; stroke-miterlimit: 4; fill: none; fill-rule: nonzero; opacity: 1;" vector-effect="non-scaling-stroke"  transform=" translate(-37.04, -25.07)" d="M 37.036 31.15 C 34.578396406139134 31.14999996671517 32.36280308580416 29.669521869884242 31.422412353029394 27.39895350617678 C 30.482021620254628 25.12838514246932 31.002041699973294 22.51491077431522 32.739972876837086 20.777265629574018 C 34.47790405370088 19.03962048483281 37.09146397942113 18.520030578292804 39.36187752828387 19.460795023676617 C 41.63229107714662 20.40155946906043 43.11240447722085 22.617396439423953 43.112 25.074999999999992" stroke-linecap="round" />
</g>
<g transform="matrix(9.39 0 0 9.39 545.52 235.48)"  >
<path style="stroke: rgb(245,145,110); stroke-width: 2; stroke-dasharray: none; stroke-linecap: round; stroke-dashoffset: 0; stroke-linejoin: round; stroke-miterlimit: 4; fill: none; fill-rule: nonzero; opacity: 1;" vector-effect="non-scaling-stroke"  transform=" translate(-58.09, -25.07)" d="M 58.088 31.15 C 55.63089186278053 31.150000000000002 53.41572641563727 29.669873768761928 52.47543183999393 27.399801851617923 C 51.53513726435059 25.129729934473918 52.05488847835518 22.51676413022826 53.79232630429172 20.779326304291722 C 55.52976413022826 19.041888478355187 58.14272993447391 18.52213726435059 60.41280185161792 19.462431839993933 C 62.68287376876192 20.402726415637275 64.163 22.61789186278053 64.163 25.075000000000003" stroke-linecap="round" />
</g>
<g transform="matrix(9.39 0 0 9.39 743.2 235.46)"  >
<path style="stroke: rgb(245,145,110); stroke-width: 2; stroke-dasharray: none; stroke-linecap: round; stroke-dashoffset: 0; stroke-linejoin: round; stroke-miterlimit: 4; fill: none; fill-rule: nonzero; opacity: 1;" vector-effect="non-scaling-stroke"  transform=" translate(-79.14, -25.07)" d="M 79.138 31.15 C 76.68039640613914 31.149999966715175 74.46480308580416 29.66952186988425 73.52441235302939 27.398953506176785 C 72.58402162025463 25.128385142469323 73.1040416999733 22.51491077431522 74.84197287683708 20.777265629574018 C 76.57990405370087 19.03962048483281 79.19346397942113 18.5200305782928 81.46387752828387 19.460795023676617 C 83.73429107714662 20.401559469060434 85.21440447722085 22.617396439423963 85.214 25.075000000000003" stroke-linecap="round" />
</g>
<g transform="matrix(9.39 0 0 9.39 536.06 499.65)"  >
<path style="stroke: rgb(245,145,110); stroke-width: 2; stroke-dasharray: none; stroke-linecap: round; stroke-dashoffset: 0; stroke-linejoin: round; stroke-miterlimit: 4; fill: none; fill-rule: nonzero; opacity: 1;" vector-effect="non-scaling-stroke"  transform=" translate(-57.09, -53.2)" d="M 22 53.204 L 92.17 53.204" stroke-linecap="round" />
</g>
<g transform="matrix(9.39 0 0 9.39 714.95 654.96)"  >
<path style="stroke: rgb(245,145,110); stroke-width: 2; stroke-dasharray: none; stroke-linecap: round; stroke-dashoffset: 0; stroke-linejoin: round; stroke-miterlimit: 4; fill: rgb(26,26,26); fill-rule: nonzero; opacity: 1;" vector-effect="non-scaling-stroke"  transform=" translate(-76.13, -69.74)" d="M 92.17 55.209 C 76.131 79.267 60.092 84.279 60.092 84.279 C 64.70391368211287 76.20749075584958 65.62785172250842 66.54419869283981 62.629000000000005 57.74500000000001 C 62.52397720288558 57.45507599466958 62.58749769907804 57.13086160224331 62.79416094225129 56.90200352241722 C 63.00082418542453 56.67314544259112 63.31690148570484 56.5769946966742 63.616 56.652 C 68.248 57.912 82.22200000000001 61.011 92.17 55.209" stroke-linecap="round" />
</g>
<g transform="matrix(9.39 0 0 9.39 403.49 593.79)"  >
<path style="stroke: rgb(245,145,110); stroke-width: 2; stroke-dasharray: none; stroke-linecap: round; stroke-dashoffset: 0; stroke-linejoin: round; stroke-miterlimit: 4; fill: none; fill-rule: nonzero; opacity: 1;" vector-effect="non-scaling-stroke"  transform=" translate(-42.97, -63.23)" d="M 22 63.228 L 63.935 63.228" stroke-linecap="round" />
</g>
<g transform="matrix(9.39 0 0 9.39 403.49 687.94)"  >
<path style="stroke: rgb(245,145,110); stroke-width: 2; stroke-dasharray: none; stroke-linecap: round; stroke-dashoffset: 0; stroke-linejoin: round; stroke-miterlimit: 4; fill: none; fill-rule: nonzero; opacity: 1;" vector-effect="non-scaling-stroke"  transform=" translate(-42.97, -73.25)" d="M 22 73.253 L 63.935 73.253" stroke-linecap="round" />
</g>
<g transform="matrix(9.39 0 0 9.39 338.41 598.48)"  >
<path style="stroke: rgb(245,145,110); stroke-width: 2; stroke-dasharray: none; stroke-linecap: round; stroke-dashoffset: 0; stroke-linejoin: round; stroke-miterlimit: 4; fill: none; fill-rule: nonzero; opacity: 1;" vector-effect="non-scaling-stroke"  transform=" translate(-36.03, -63.73)" d="M 36.034 43.18 L 36.034 84.28" stroke-linecap="round" />
</g>
<g transform="matrix(9.39 0 0 9.39 470.2 598.48)"  >
<path style="stroke: rgb(245,145,110); stroke-width: 2; stroke-dasharray: none; stroke-linecap: round; stroke-dashoffset: 0; stroke-linejoin: round; stroke-miterlimit: 4; fill: none; fill-rule: nonzero; opacity: 1;" vector-effect="non-scaling-stroke"  transform=" translate(-50.07, -63.73)" d="M 50.068 43.18 L 50.068 84.28" stroke-linecap="round" />
</g>
<g transform="matrix(9.39 0 0 9.39 602 469.41)"  >
<path style="stroke: rgb(245,145,110); stroke-width: 2; stroke-dasharray: none; stroke-linecap: round; stroke-dashoffset: 0; stroke-linejoin: round; stroke-miterlimit: 4; fill: none; fill-rule: nonzero; opacity: 1;" vector-effect="non-scaling-stroke"  transform=" translate(-64.1, -49.98)" d="M 64.102 43.18 L 64.102 56.788" stroke-linecap="round" />
</g>
<g transform="matrix(9.39 0 0 9.39 733.8 477.96)"  >
<path style="stroke: rgb(245,145,110); stroke-width: 2; stroke-dasharray: none; stroke-linecap: round; stroke-dashoffset: 0; stroke-linejoin: round; stroke-miterlimit: 4; fill: none; fill-rule: nonzero; opacity: 1;" vector-effect="non-scaling-stroke"  transform=" translate(-78.14, -50.89)" d="M 78.136 43.18 L 78.136 58.61" stroke-linecap="round" />
</g>
<g transform="matrix(9.39 0 0 9.39 272.5 546.71)"  >
<path style="stroke: none; stroke-width: 1; stroke-dasharray: none; stroke-linecap: butt; stroke-dashoffset: 0; stroke-linejoin: miter; stroke-miterlimit: 4; fill: rgb(255,255,255); fill-rule: nonzero; opacity: 1;" vector-effect="non-scaling-stroke"  transform=" translate(-29.02, -58.22)" d="M 36.034 53.204 L 22 53.204 L 22 63.228 L 36.034 63.228 z" stroke-linecap="round" />
</g>
<g transform="matrix(9.39 0 0 9.39 272.5 546.71)"  >
<path style="stroke: none; stroke-width: 1; stroke-dasharray: none; stroke-linecap: butt; stroke-dashoffset: 0; stroke-linejoin: miter; stroke-miterlimit: 4; fill: rgb(241,95,44); fill-opacity: 0.1; fill-rule: nonzero; opacity: 1;" vector-effect="non-scaling-stroke"  transform=" translate(-29.02, -58.22)" d="M 36.034 53.204 L 22 53.204 L 22 63.228 L 36.034 63.228 z" stroke-linecap="round" />
</g>
<g transform="matrix(9.39 0 0 9.39 272.5 546.71)"  >
<path style="stroke: rgb(245,145,110); stroke-width: 2; stroke-dasharray: none; stroke-linecap: butt; stroke-dashoffset: 0; stroke-linejoin: round; stroke-miterlimit: 4; fill: rgb(26,26,26); fill-rule: nonzero; opacity: 1;" vector-effect="non-scaling-stroke"  transform=" translate(-29.02, -58.22)" d="M 36.034 53.204 L 22 53.204 L 22 63.228 L 36.034 63.228 z" stroke-linecap="round" />
</g>
<g transform="matrix(9.39 0 0 9.39 404.3 739.71)"  >
<path style="stroke: none; stroke-width: 1; stroke-dasharray: none; stroke-linecap: butt; stroke-dashoffset: 0; stroke-linejoin: miter; stroke-miterlimit: 4; fill: rgb(255,255,255); fill-rule: nonzero; opacity: 1;" vector-effect="non-scaling-stroke"  transform=" translate(-43.05, -78.77)" d="M 50.068 73.253 L 36.034 73.253 L 36.034 84.279 L 50.068 84.279 z" stroke-linecap="round" />
</g>
<g transform="matrix(9.39 0 0 9.39 404.3 739.71)"  >
<path style="stroke: none; stroke-width: 1; stroke-dasharray: none; stroke-linecap: butt; stroke-dashoffset: 0; stroke-linejoin: miter; stroke-miterlimit: 4; fill: rgb(241,95,44); fill-opacity: 0.1; fill-rule: nonzero; opacity: 1;" vector-effect="non-scaling-stroke"  transform=" translate(-43.05, -78.77)" d="M 50.068 73.253 L 36.034 73.253 L 36.034 84.279 L 50.068 84.279 z" stroke-linecap="round" />
</g>
<g transform="matrix(9.39 0 0 9.39 404.3 739.71)"  >
<path style="stroke: rgb(245,145,110); stroke-width: 2; stroke-dasharray: none; stroke-linecap: butt; stroke-dashoffset: 0; stroke-linejoin: round; stroke-miterlimit: 4; fill: rgb(26,26,26); fill-rule: nonzero; opacity: 1;" vector-effect="non-scaling-stroke"  transform=" translate(-43.05, -78.77)" d="M 50.068 73.253 L 36.034 73.253 L 36.034 84.279 L 50.068 84.279 z" stroke-linecap="round" />
</g>
<g transform="matrix(9.39 0 0 9.39 536.09 452.58)"  >
<path style="stroke: none; stroke-width: 1; stroke-dasharray: none; stroke-linecap: butt; stroke-dashoffset: 0; stroke-linejoin: miter; stroke-miterlimit: 4; fill: rgb(255,255,255); fill-rule: nonzero; opacity: 1;" vector-effect="non-scaling-stroke"  transform=" translate(-57.09, -48.19)" d="M 64.102 43.18 L 50.068 43.18 L 50.068 53.204 L 64.102 53.204 z" stroke-linecap="round" />
</g>
<g transform="matrix(9.39 0 0 9.39 536.09 452.58)"  >
<path style="stroke: none; stroke-width: 1; stroke-dasharray: none; stroke-linecap: butt; stroke-dashoffset: 0; stroke-linejoin: miter; stroke-miterlimit: 4; fill: rgb(241,95,44); fill-opacity: 0.1; fill-rule: nonzero; opacity: 1;" vector-effect="non-scaling-stroke"  transform=" translate(-57.09, -48.19)" d="M 64.102 43.18 L 50.068 43.18 L 50.068 53.204 L 64.102 53.204 z" stroke-linecap="round" />
</g>
<g transform="matrix(9.39 0 0 9.39 536.09 452.58)"  >
<path style="stroke: rgb(245,145,110); stroke-width: 2; stroke-dasharray: none; stroke-linecap: butt; stroke-dashoffset: 0; stroke-linejoin: round; stroke-miterlimit: 4; fill: rgb(26,26,26); fill-rule: nonzero; opacity: 1;" vector-effect="non-scaling-stroke"  transform=" translate(-57.09, -48.19)" d="M 64.102 43.18 L 50.068 43.18 L 50.068 53.204 L 64.102 53.204 z" stroke-linecap="round" />
</g>
<g transform="matrix(9.39 0 0 9.39 536.08 349.03)"  >
<path style="stroke: rgb(245,145,110); stroke-width: 2; stroke-dasharray: none; stroke-linecap: round; stroke-dashoffset: 0; stroke-linejoin: round; stroke-miterlimit: 4; fill: none; fill-rule: nonzero; opacity: 1;" vector-effect="non-scaling-stroke"  transform=" translate(-57.09, -37.16)" d="M 47.06 37.165 L 67.11 37.165" stroke-linecap="round" />
</g>
<g transform="matrix(9.39 0 0 9.39 771.45 349.03)"  >
<path style="stroke: rgb(245,145,110); stroke-width: 2; stroke-dasharray: none; stroke-linecap: round; stroke-dashoffset: 0; stroke-linejoin: round; stroke-miterlimit: 4; fill: none; fill-rule: nonzero; opacity: 1;" vector-effect="non-scaling-stroke"  transform=" translate(-82.15, -37.16)" d="M 78.136 37.165 L 86.15599999999999 37.165" stroke-linecap="round" />
</g>
<g transform="matrix(9.39 0 0 9.39 300.74 349.03)"  >
<path style="stroke: rgb(245,145,110); stroke-width: 2; stroke-dasharray: none; stroke-linecap: round; stroke-dashoffset: 0; stroke-linejoin: round; stroke-miterlimit: 4; fill: none; fill-rule: nonzero; opacity: 1;" vector-effect="non-scaling-stroke"  transform=" translate(-32.02, -37.16)" d="M 36.034 37.165 L 28.014 37.165" stroke-linecap="round" />
</g>
<g transform="matrix(0 0 0 0 0 0)"  >
<g style=""   >
</g>
</g>
<g transform="matrix(0 0 0 0 0 0)"  >
<g style=""   >
</g>
</g>
<g transform="matrix(0 0 0 0 0 0)"  >
<g style=""   >
</g>
</g>
<g transform="matrix(0 0 0 0 0 0)"  >
<g style=""   >
</g>
</g>
<g transform="matrix(0 0 0 0 0 0)"  >
<g style=""   >
</g>
</g>
</svg>