<svg width="151" height="120" viewBox="0 0 151 120" fill="none" xmlns="http://www.w3.org/2000/svg">
<path d="M145.017 68C145.015 40.23 128.081 15.252 102.242 4.904C76.402 -5.444 46.851 0.917997 27.592 20.974C8.334 41.031 3.238 70.751 14.722 96.05H138.949C142.956 87.2421 145.025 77.6765 145.017 68Z" fill="#F15F2C" fill-opacity="0.101961"/>
<path d="M9.506 96.05H142.46" stroke="#F5916E" stroke-width="1.70455" stroke-linecap="round" stroke-linejoin="round"/>
<path d="M1.835 96.05H6.097" stroke="#F5916E" stroke-width="1.70455" stroke-linecap="round" stroke-linejoin="round"/>
<path d="M145.869 96.05H150.131" stroke="#F5916E" stroke-width="1.70455" stroke-linecap="round" stroke-linejoin="round"/>
<path d="M61.333 108.399C61.7489 106.64 61.5336 104.791 60.7248 103.175C59.916 101.558 58.5651 100.278 56.908 99.556C56.8352 99.5313 56.7739 99.4807 56.7359 99.4138C56.6979 99.3469 56.6857 99.2684 56.7018 99.1932C56.7178 99.118 56.7609 99.0512 56.8229 99.0057C56.8849 98.9601 56.9614 98.9389 57.038 98.946H99.87V30.496C99.8718 30.0462 99.7547 29.6039 99.5304 29.2141C99.3061 28.8242 98.9827 28.5005 98.593 28.276C98.2086 28.0496 97.7706 27.9303 97.3245 27.9303C96.8784 27.9303 96.4404 28.0496 96.056 28.276H91.016C90.193 28.783 55.731 28.426 54.908 27.918L50.13 28.276C49.7456 28.0496 49.3076 27.9303 48.8615 27.9303C48.4154 27.9303 47.9774 28.0496 47.593 28.276C47.2031 28.5004 46.8795 28.824 46.655 29.2139C46.4306 29.6038 46.3133 30.0461 46.315 30.496V106.605C46.2911 108.493 46.9652 110.323 48.208 111.744C49.4508 113.166 51.1748 114.078 53.049 114.306C54.9232 114.536 56.8163 114.066 58.3654 112.986C59.9146 111.906 61.0108 110.293 61.444 108.455L61.333 108.399Z" fill="white"/>
<path d="M53.87 41.503H92.204" stroke="#F5916E" stroke-width="1.85185" stroke-linecap="round" stroke-linejoin="round"/>
<path d="M53.87 49.162H92.204" stroke="#F5916E" stroke-width="1.85185" stroke-linecap="round" stroke-linejoin="round"/>
<path d="M53.87 56.821H70.482" stroke="#F5916E" stroke-width="1.85185" stroke-linecap="round" stroke-linejoin="round"/>
<path d="M53.87 64.48H65.37" stroke="#F5916E" stroke-width="1.85185" stroke-linecap="round" stroke-linejoin="round"/>
<path d="M53.87 72.139H64.093" stroke="#F5916E" stroke-width="1.85185" stroke-linecap="round" stroke-linejoin="round"/>
<path d="M53.87 79.798H64.093" stroke="#F5916E" stroke-width="1.85185" stroke-linecap="round" stroke-linejoin="round"/>
<path d="M61.333 108.399C61.7489 106.64 61.5336 104.791 60.7248 103.175C59.916 101.558 58.5651 100.278 56.908 99.556C56.8352 99.5313 56.7739 99.4807 56.7359 99.4138C56.6979 99.3469 56.6857 99.2684 56.7018 99.1932C56.7178 99.118 56.7609 99.0512 56.8229 99.0057C56.8849 98.9601 56.9614 98.9389 57.038 98.946H99.87V29.917C99.87 29.3866 99.6593 28.8779 99.2842 28.5028C98.9091 28.1277 98.4004 27.917 97.87 27.917H48.315C47.7846 27.917 47.2759 28.1277 46.9008 28.5028C46.5257 28.8779 46.315 29.3866 46.315 29.917V106.604C46.2911 108.492 46.9652 110.322 48.208 111.743C49.4508 113.165 51.1748 114.077 53.049 114.305C54.9232 114.535 56.8163 114.065 58.3654 112.985C59.9146 111.905 61.0108 110.292 61.444 108.454L61.333 108.399Z" stroke="#F5916E" stroke-width="1.85185" stroke-linecap="round" stroke-linejoin="round"/>
<path d="M53.87 114.263C55.6328 114.265 57.3422 113.658 58.7095 112.545C60.0769 111.433 61.0185 109.883 61.3755 108.156C61.7324 106.43 61.4827 104.633 60.6686 103.07C59.8546 101.506 58.5259 100.272 56.907 99.574C56.8409 99.5399 56.7881 99.4847 56.757 99.4172C56.7259 99.3496 56.7183 99.2736 56.7355 99.2012C56.7526 99.1289 56.7935 99.0643 56.8516 99.0179C56.9097 98.9714 56.9816 98.9458 57.056 98.945H99.648C101.431 98.9171 103.17 99.5029 104.572 100.604C105.975 101.706 106.956 103.256 107.352 104.995C107.589 106.111 107.573 107.266 107.306 108.375C107.04 109.485 106.528 110.521 105.81 111.407C105.091 112.294 104.183 113.009 103.152 113.5C102.121 113.991 100.994 114.245 99.852 114.245L53.87 114.263Z" fill="white" stroke="#F5916E" stroke-width="1.85185" stroke-linecap="round" stroke-linejoin="round"/>
<path d="M81.982 84.904C89.039 84.904 94.759 79.189 94.759 72.139C94.759 65.089 89.039 59.374 81.982 59.374C74.925 59.374 69.204 65.089 69.204 72.139C69.204 79.189 74.924 84.904 81.982 84.904Z" fill="#FCDFD5"/>
<path d="M83.44 73.443H80.963V74.421H83.526V75.915H80.963V78H79.213V75.915H77.435V74.42H79.213V73.443H77.435V71.955H79.213V66.364H83.441C86.088 66.364 87.435 67.944 87.435 69.921C87.435 71.926 86.065 73.443 83.44 73.443ZM80.963 71.955H83.418C84.968 71.955 85.69 71.119 85.69 69.926C85.69 68.744 84.963 67.864 83.44 67.864H80.963V71.955Z" fill="#F5916E"/>
<path d="M81.982 84.904C89.039 84.904 94.759 79.189 94.759 72.139C94.759 65.089 89.039 59.374 81.982 59.374C74.925 59.374 69.204 65.089 69.204 72.139C69.204 79.189 74.924 84.904 81.982 84.904Z" stroke="#F5916E" stroke-width="1.85185" stroke-linecap="round" stroke-linejoin="round"/>
</svg>
