<?xml version="1.0" encoding="UTF-8" standalone="no" ?>
<!DOCTYPE svg PUBLIC "-//W3C//DTD SVG 1.1//EN" "http://www.w3.org/Graphics/SVG/1.1/DTD/svg11.dtd">
<svg xmlns="http://www.w3.org/2000/svg" xmlns:xlink="http://www.w3.org/1999/xlink" version="1.1" width="1080" height="1080" viewBox="0 0 1080 1080" xml:space="preserve">
<desc>Created with Fabric.js 5.2.4</desc>
<defs>
</defs>
<g transform="matrix(1 0 0 1 540 540)" id="d4e131b6-499d-417e-8e66-2d755db75f8d"  >
<rect style="stroke: none; stroke-width: 1; stroke-dasharray: none; stroke-linecap: butt; stroke-dashoffset: 0; stroke-linejoin: miter; stroke-miterlimit: 4; fill: rgb(255,255,255); fill-rule: nonzero; opacity: 1; visibility: hidden;" vector-effect="non-scaling-stroke"  x="-540" y="-540" rx="0" ry="0" width="1080" height="1080" />
</g>
<g transform="matrix(1 0 0 1 540 540)" id="b21ad759-71aa-426a-910f-0eb1068637bb"  >
</g>
<g transform="matrix(0 0 0 0 0 0)"  >
<g style=""   >
</g>
</g>
<g transform="matrix(9.39 0 0 9.39 531.43 533.71)"  >
<path style="stroke: none; stroke-width: 0; stroke-dasharray: none; stroke-linecap: butt; stroke-dashoffset: 0; stroke-linejoin: miter; stroke-miterlimit: 4; fill: rgb(241,95,44); fill-opacity: 0.31; fill-rule: evenodd; opacity: 1;" vector-effect="non-scaling-stroke"  transform=" translate(-56.65, -56.89)" d="M 79.761 18.858 C 91.896 24.511 100.341 36.203 102.67099999999999 49.402 C 105.213 63.811 103.139 80.012 92.28899999999999 89.84700000000001 C 81.80899999999998 99.34700000000001 66.31699999999998 97.013 52.33699999999999 95.02700000000002 C 38.94899999999999 93.12500000000001 24.87699999999999 90.31100000000002 17.19999999999999 79.18000000000002 C 9.134 67.484 6.926 51.39 13.547 38.785 C 19.503 27.45 34.324 26.957 46.573 23.27 C 57.821 19.884999999999998 69.128 13.904 79.761 18.858" stroke-linecap="round" />
</g>
<g transform="matrix(9.39 0 0 9.39 417.86 300.48)"  >
<rect style="stroke: rgb(245,145,110); stroke-width: 2; stroke-dasharray: none; stroke-linecap: butt; stroke-dashoffset: 0; stroke-linejoin: miter; stroke-miterlimit: 4; fill: rgb(21,21,21); fill-rule: nonzero; opacity: 1;" vector-effect="non-scaling-stroke"  x="-35.5" y="-13" rx="7" ry="7" width="71" height="26" />
</g>
<g transform="matrix(9.39 0 0 9.39 244.14 244.14)"  >
<rect style="stroke: none; stroke-width: 1; stroke-dasharray: none; stroke-linecap: butt; stroke-dashoffset: 0; stroke-linejoin: miter; stroke-miterlimit: 4; fill: rgb(245,145,110); fill-rule: nonzero; opacity: 1;" vector-effect="non-scaling-stroke"  x="-12" y="-2" rx="2" ry="2" width="24" height="4" />
</g>
<g transform="matrix(9.39 0 0 9.39 403.77 309.87)"  >
<rect style="stroke: none; stroke-width: 1; stroke-dasharray: none; stroke-linecap: butt; stroke-dashoffset: 0; stroke-linejoin: miter; stroke-miterlimit: 4; fill: rgb(255,255,255); fill-rule: nonzero; opacity: 1;" vector-effect="non-scaling-stroke"  x="-29" y="-1" rx="1" ry="1" width="58" height="2" />
</g>
<g transform="matrix(9.39 0 0 9.39 403.77 309.87)"  >
<rect style="stroke: none; stroke-width: 1; stroke-dasharray: none; stroke-linecap: butt; stroke-dashoffset: 0; stroke-linejoin: miter; stroke-miterlimit: 4; fill: rgb(241,95,44); fill-opacity: 0.3; fill-rule: nonzero; opacity: 1;" vector-effect="non-scaling-stroke"  x="-29" y="-1" rx="1" ry="1" width="58" height="2" />
</g>
<g transform="matrix(9.39 0 0 9.39 309.87 366.21)"  >
<rect style="stroke: none; stroke-width: 1; stroke-dasharray: none; stroke-linecap: butt; stroke-dashoffset: 0; stroke-linejoin: miter; stroke-miterlimit: 4; fill: rgb(255,255,255); fill-rule: nonzero; opacity: 1;" vector-effect="non-scaling-stroke"  x="-19" y="-1" rx="1" ry="1" width="38" height="2" />
</g>
<g transform="matrix(9.39 0 0 9.39 309.87 366.21)"  >
<rect style="stroke: none; stroke-width: 1; stroke-dasharray: none; stroke-linecap: butt; stroke-dashoffset: 0; stroke-linejoin: miter; stroke-miterlimit: 4; fill: rgb(241,95,44); fill-opacity: 0.3; fill-rule: nonzero; opacity: 1;" vector-effect="non-scaling-stroke"  x="-19" y="-1" rx="1" ry="1" width="38" height="2" />
</g>
<g transform="matrix(9.39 0 0 9.39 596.27 619.74)"  >
<rect style="stroke: rgb(245,145,110); stroke-width: 2; stroke-dasharray: none; stroke-linecap: butt; stroke-dashoffset: 0; stroke-linejoin: miter; stroke-miterlimit: 4; fill: rgb(21,21,21); fill-rule: nonzero; opacity: 1;" vector-effect="non-scaling-stroke"  x="-35.5" y="-13" rx="7" ry="7" width="71" height="26" />
</g>
<g transform="matrix(9.39 0 0 9.39 422.55 563.4)"  >
<rect style="stroke: none; stroke-width: 1; stroke-dasharray: none; stroke-linecap: butt; stroke-dashoffset: 0; stroke-linejoin: miter; stroke-miterlimit: 4; fill: rgb(245,145,110); fill-rule: nonzero; opacity: 1;" vector-effect="non-scaling-stroke"  x="-12" y="-2" rx="2" ry="2" width="24" height="4" />
</g>
<g transform="matrix(9.39 0 0 9.39 554.01 629.13)"  >
<rect style="stroke: none; stroke-width: 1; stroke-dasharray: none; stroke-linecap: butt; stroke-dashoffset: 0; stroke-linejoin: miter; stroke-miterlimit: 4; fill: rgb(255,255,255); fill-rule: nonzero; opacity: 1;" vector-effect="non-scaling-stroke"  x="-26" y="-1" rx="1" ry="1" width="52" height="2" />
</g>
<g transform="matrix(9.39 0 0 9.39 554.01 629.13)"  >
<rect style="stroke: none; stroke-width: 1; stroke-dasharray: none; stroke-linecap: butt; stroke-dashoffset: 0; stroke-linejoin: miter; stroke-miterlimit: 4; fill: rgb(241,95,44); fill-opacity: 0.3; fill-rule: nonzero; opacity: 1;" vector-effect="non-scaling-stroke"  x="-26" y="-1" rx="1" ry="1" width="52" height="2" />
</g>
<g transform="matrix(9.39 0 0 9.39 586.88 685.47)"  >
<rect style="stroke: none; stroke-width: 1; stroke-dasharray: none; stroke-linecap: butt; stroke-dashoffset: 0; stroke-linejoin: miter; stroke-miterlimit: 4; fill: rgb(255,255,255); fill-rule: nonzero; opacity: 1;" vector-effect="non-scaling-stroke"  x="-29.5" y="-1" rx="1" ry="1" width="59" height="2" />
</g>
<g transform="matrix(9.39 0 0 9.39 586.88 685.47)"  >
<rect style="stroke: none; stroke-width: 1; stroke-dasharray: none; stroke-linecap: butt; stroke-dashoffset: 0; stroke-linejoin: miter; stroke-miterlimit: 4; fill: rgb(241,95,44); fill-opacity: 0.3; fill-rule: nonzero; opacity: 1;" vector-effect="non-scaling-stroke"  x="-29.5" y="-1" rx="1" ry="1" width="59" height="2" />
</g>
<g transform="matrix(0 0 0 0 0 0)"  >
<g style=""   >
</g>
</g>
<g transform="matrix(0 0 0 0 0 0)"  >
<g style=""   >
</g>
</g>
<g transform="matrix(0 0 0 0 0 0)"  >
<g style=""   >
</g>
</g>
</svg>