<?xml version="1.0" encoding="UTF-8" standalone="no" ?>
<!DOCTYPE svg PUBLIC "-//W3C//DTD SVG 1.1//EN" "http://www.w3.org/Graphics/SVG/1.1/DTD/svg11.dtd">
<svg xmlns="http://www.w3.org/2000/svg" xmlns:xlink="http://www.w3.org/1999/xlink" version="1.1" width="1080" height="1080" viewBox="0 0 1080 1080" xml:space="preserve">
<desc>Created with Fabric.js 5.2.4</desc>
<defs>
</defs>
<g transform="matrix(1 0 0 1 540 540)" id="b9a4bf5f-4886-4cf6-be11-380fe6b3abd2"  >
</g>
<g transform="matrix(1 0 0 1 540 540)" id="0fc2361e-f182-4da1-b7c0-609471712ea0"  >
<rect style="stroke: none; stroke-width: 1; stroke-dasharray: none; stroke-linecap: butt; stroke-dashoffset: 0; stroke-linejoin: miter; stroke-miterlimit: 4; fill: rgb(255,255,255); fill-rule: nonzero; opacity: 1; visibility: hidden;" vector-effect="non-scaling-stroke"  x="-540" y="-540" rx="0" ry="0" width="1080" height="1080" />
</g>
<g transform="matrix(0 0 0 0 0 0)"  >
<g style=""   >
</g>
</g>
<g transform="matrix(9 0 0 9 680.83 723.09)"  >
<path style="stroke: none; stroke-width: 1; stroke-dasharray: none; stroke-linecap: butt; stroke-dashoffset: 0; stroke-linejoin: miter; stroke-miterlimit: 4; fill: rgb(241,95,44); fill-opacity: 0.1; fill-rule: evenodd; opacity: 1;" vector-effect="non-scaling-stroke"  transform=" translate(-75.65, -69.34)" d="M 101.255 17.874 C 116.601 17.102 120.53399999999999 27.034 129.977 39.179 C 140.286 52.435 135.71200000000002 71.93700000000001 129.977 87.737 C 124.438 102.999 107.46600000000001 108.94 92.215 114.42399999999999 C 77.60900000000001 119.675 61.821000000000005 124.36699999999999 48.06 117.19 C 33.6 109.648 15.227000000000004 91.31 15.186 74.97 C 15.149 60.272 43.084 55.464 52.681 45.995999999999995 C 62.278999999999996 36.52799999999999 87.80799999999999 18.550999999999995 101.255 17.873999999999995" stroke-linecap="round" />
</g>
<g transform="matrix(9 0 0 9 560.94 603.57)"  >
<path style="stroke: none; stroke-width: 1; stroke-dasharray: none; stroke-linecap: butt; stroke-dashoffset: 0; stroke-linejoin: miter; stroke-miterlimit: 4; fill: rgb(30,30,30); fill-rule: nonzero; opacity: 1;" vector-effect="non-scaling-stroke"  transform=" translate(-62.33, -56.06)" d="M 98.39 78.371 C 98.44589652750184 79.33951817925326 97.7100683657387 80.17178983794652 96.742 80.235 L 34.849000000000004 83.535 C 33.889280087662314 83.57312303844482 33.07239029780585 82.84296694241927 33.003 81.88499999999999 L 32.805 78.13999999999999 C 32.73675613768004 77.20803368393304 31.95945824556277 76.48750473899287 31.025 76.48999999999998 L 28.04 76.48999999999998 C 27.06314778673317 76.49003946458352 26.268780693261824 75.70281274948046 26.259999999999998 74.72599999999998 L 26.259999999999998 30.372 C 26.259469177439904 29.899568219814718 26.44676998973469 29.446304279871175 26.780642294652715 29.11205683753189 C 27.11451459957074 28.777809395192612 27.567567921599796 28.589999701784983 28.04 28.59 L 90 28.59 C 90.47088732778255 28.589972653463338 90.92221687767345 28.778322652558156 91.25339515046093 29.113070061581013 C 91.58457342324843 29.447817470603873 91.7680747933312 29.901140017960042 91.763 30.372 L 91.763 32.681 L 94.253 32.565 C 94.71648028269507 32.539082706503095 95.17126852863858 32.69837387924026 95.5172863531678 33.00782071418509 C 95.86330417769703 33.317267549129916 96.07219810443802 33.75151327879353 96.098 34.214999999999996 z" stroke-linecap="round" />
</g>
<g transform="matrix(9 0 0 9 580.05 562.36)"  >
<path style="stroke: rgb(245,145,110); stroke-width: 0; stroke-dasharray: none; stroke-linecap: butt; stroke-dashoffset: 0; stroke-linejoin: miter; stroke-miterlimit: 10; fill: rgb(42,42,42); fill-rule: nonzero; opacity: 1;" vector-effect="non-scaling-stroke"  transform=" translate(-64.56, -51.6)" d="M 94.272 26.109 L 32.38 29.312 C 31.407000000000004 29.362000000000002 30.660000000000004 30.192 30.71 31.165000000000003 L 32.996 75.411 C 33.046 76.385 33.876000000000005 77.133 34.848 77.083 L 96.74199999999999 73.88 C 97.71399999999998 73.83 98.46199999999999 73 98.41199999999999 72.026 L 96.125 27.78 C 96.10095612912781 27.312655491712523 95.89219803805116 26.87401621438494 95.5446720872402 26.560623951133397 C 95.19714613642925 26.247231687881854 94.73933497543351 26.08477154793314 94.272 26.109 Z" stroke-linecap="round" />
</g>
<g transform="matrix(9 0 0 9 530.24 512.66)"  >
<path style="stroke: rgb(245,145,110); stroke-width: 0; stroke-dasharray: none; stroke-linecap: butt; stroke-dashoffset: 0; stroke-linejoin: miter; stroke-miterlimit: 10; fill: rgb(61,61,61); fill-rule: nonzero; opacity: 1;" vector-effect="non-scaling-stroke"  transform=" translate(-59.03, -46.07)" d="M 90.017 22.157 L 28.04 22.157 C 27.066 22.157 26.276 22.947 26.276 23.922 L 26.276 68.227 C 26.276 69.20100000000001 27.066 69.991 28.04 69.991 L 90.01599999999999 69.991 C 90.99 69.991 91.779 69.201 91.779 68.227 L 91.779 23.922 C 91.779 22.947 90.98899999999999 22.157 90.01599999999999 22.157 Z" stroke-linecap="round" />
</g>
<g transform="matrix(9 0 0 9 664.55 505.84)"  >
<path style="stroke: rgb(245,145,110); stroke-width: 0; stroke-dasharray: none; stroke-linecap: butt; stroke-dashoffset: 0; stroke-linejoin: miter; stroke-miterlimit: 10; fill: rgb(84,84,84); fill-rule: nonzero; opacity: 1;" vector-effect="non-scaling-stroke"  transform=" translate(-74.28, -45.32)" d="M 85.534 44.936 L 85.534 45.694 C 85.43472951037641 48.64714757652543 84.1796364411101 51.4431860993602 82.039 53.480000000000004 C 77.5872441621167 57.71503177326785 70.56152660283338 57.59663080578373 66.255 53.214000000000006 C 61.946434243061276 48.82930169397384 61.946434243061276 41.80069830602617 66.255 37.416000000000004 C 70.56152660283338 33.03336919421628 77.5872441621167 32.91496822673216 82.03899999999999 37.150000000000006 C 84.1796364411101 39.18681390063981 85.43472951037641 41.98285242347458 85.534 44.936 Z" stroke-linecap="round" />
</g>
<g transform="matrix(9 0 0 9 718.69 455.63)"  >
<path style="stroke: none; stroke-width: 1; stroke-dasharray: none; stroke-linecap: butt; stroke-dashoffset: 0; stroke-linejoin: miter; stroke-miterlimit: 4; fill: rgb(245,145,110); fill-rule: nonzero; opacity: 1;" vector-effect="non-scaling-stroke"  transform=" translate(-79.85, -39.63)" d="M 85.533 44.936 L 85.533 45.695 L 74.176 45.695 L 74.176 33.555 C 77.19021399668841 33.559668423165 80.07922899573127 34.76102675195026 82.208 36.894999999999996 C 84.33681697301293 39.029672409043016 85.53250307291793 41.92125494418168 85.533 44.936" stroke-linecap="round" />
</g>
<g transform="matrix(9 0 0 9 300.13 513.66)"  >
<path style="stroke: rgb(245,145,110); stroke-width: 2; stroke-dasharray: none; stroke-linecap: round; stroke-dashoffset: 0; stroke-linejoin: round; stroke-miterlimit: 4; fill: none; fill-rule: nonzero; opacity: 1;" vector-effect="non-scaling-stroke"  transform=" translate(-33.35, -46.07)" d="M 33.348 27.468 L 33.348 64.68" stroke-linecap="round" />
</g>
<g transform="matrix(9 0 0 9 375.8 387.63)"  >
<path style="stroke: none; stroke-width: 1; stroke-dasharray: none; stroke-linecap: butt; stroke-dashoffset: 0; stroke-linejoin: miter; stroke-miterlimit: 4; fill: rgb(255,255,255); fill-rule: nonzero; opacity: 1;" vector-effect="non-scaling-stroke"  transform=" translate(-41.76, -32.07)" d="M 50.16 29.415 L 33.349 29.415 L 33.349 34.726 L 50.16199999999999 34.726 z" stroke-linecap="round" />
</g>
<g transform="matrix(9 0 0 9 375.8 387.63)"  >
<path style="stroke: none; stroke-width: 1; stroke-dasharray: none; stroke-linecap: butt; stroke-dashoffset: 0; stroke-linejoin: miter; stroke-miterlimit: 4; fill: rgb(245,145,110); fill-rule: nonzero; opacity: 1;" vector-effect="non-scaling-stroke"  transform=" translate(-41.76, -32.07)" d="M 50.16 29.415 L 33.349 29.415 L 33.349 34.726 L 50.16199999999999 34.726 z" stroke-linecap="round" />
</g>
<g transform="matrix(9 0 0 9 367.85 464.39)"  >
<path style="stroke: none; stroke-width: 1; stroke-dasharray: none; stroke-linecap: butt; stroke-dashoffset: 0; stroke-linejoin: miter; stroke-miterlimit: 4; fill: rgb(245,145,110); fill-rule: nonzero; opacity: 1;" vector-effect="non-scaling-stroke"  transform=" translate(-40.87, -40.93)" d="M 48.397 38.272 L 33.348 38.272 L 33.348 43.583 L 48.397 43.583 z" stroke-linecap="round" />
</g>
<g transform="matrix(9 0 0 9 316.08 553.45)"  >
<path style="stroke: none; stroke-width: 1; stroke-dasharray: none; stroke-linecap: butt; stroke-dashoffset: 0; stroke-linejoin: miter; stroke-miterlimit: 4; fill: rgb(255,255,255); fill-rule: nonzero; opacity: 1;" vector-effect="non-scaling-stroke"  transform=" translate(-35.12, -50.5)" d="M 36.892 47.84 L 33.348000000000006 47.84 L 33.348000000000006 53.150000000000006 L 36.892 53.150000000000006 z" stroke-linecap="round" />
</g>
<g transform="matrix(9 0 0 9 316.08 553.45)"  >
<path style="stroke: none; stroke-width: 1; stroke-dasharray: none; stroke-linecap: butt; stroke-dashoffset: 0; stroke-linejoin: miter; stroke-miterlimit: 4; fill: rgb(245,145,110); fill-rule: nonzero; opacity: 1;" vector-effect="non-scaling-stroke"  transform=" translate(-35.12, -50.5)" d="M 36.892 47.84 L 33.348000000000006 47.84 L 33.348000000000006 53.150000000000006 L 36.892 53.150000000000006 z" stroke-linecap="round" />
</g>
<g transform="matrix(9 0 0 9 316.08 633.17)"  >
<path style="stroke: none; stroke-width: 1; stroke-dasharray: none; stroke-linecap: butt; stroke-dashoffset: 0; stroke-linejoin: miter; stroke-miterlimit: 4; fill: rgb(255,255,255); fill-rule: nonzero; opacity: 1;" vector-effect="non-scaling-stroke"  transform=" translate(-35.12, -59.35)" d="M 36.892 56.697 L 33.348000000000006 56.697 L 33.348000000000006 62.009 L 36.892 62.009 z" stroke-linecap="round" />
</g>
<g transform="matrix(9 0 0 9 316.08 633.17)"  >
<path style="stroke: none; stroke-width: 1; stroke-dasharray: none; stroke-linecap: butt; stroke-dashoffset: 0; stroke-linejoin: miter; stroke-miterlimit: 4; fill: rgb(245,145,110); fill-rule: nonzero; opacity: 1;" vector-effect="non-scaling-stroke"  transform=" translate(-35.12, -59.35)" d="M 36.892 56.697 L 33.348000000000006 56.697 L 33.348000000000006 62.009 L 36.892 62.009 z" stroke-linecap="round" />
</g>
<g transform="matrix(9 0 0 9 443.52 553.45)"  >
<path style="stroke: rgb(245,145,110); stroke-width: 2; stroke-dasharray: none; stroke-linecap: round; stroke-dashoffset: 0; stroke-linejoin: round; stroke-miterlimit: 4; fill: none; fill-rule: nonzero; opacity: 1;" vector-effect="non-scaling-stroke"  transform=" translate(-49.28, -50.49)" d="M 44.854 50.495 L 53.705 50.495" stroke-linecap="round" />
</g>
<g transform="matrix(9 0 0 9 443.52 601.41)"  >
<path style="stroke: rgb(245,145,110); stroke-width: 2; stroke-dasharray: none; stroke-linecap: round; stroke-dashoffset: 0; stroke-linejoin: round; stroke-miterlimit: 4; fill: none; fill-rule: nonzero; opacity: 1;" vector-effect="non-scaling-stroke"  transform=" translate(-49.28, -55.82)" d="M 44.854 55.823 L 53.705 55.823" stroke-linecap="round" />
</g>
<g transform="matrix(9 0 0 9 419.64 649.21)"  >
<path style="stroke: rgb(245,145,110); stroke-width: 2; stroke-dasharray: none; stroke-linecap: round; stroke-dashoffset: 0; stroke-linejoin: round; stroke-miterlimit: 4; fill: none; fill-rule: nonzero; opacity: 1;" vector-effect="non-scaling-stroke"  transform=" translate(-46.63, -61.13)" d="M 44.854 61.135 L 48.397999999999996 61.135" stroke-linecap="round" />
</g>
<g transform="matrix(0 0 0 0 0 0)"  >
<g style=""   >
</g>
</g>
<g transform="matrix(0 0 0 0 0 0)"  >
<g style=""   >
</g>
</g>
<g transform="matrix(0 0 0 0 0 0)"  >
<g style=""   >
</g>
</g>
<g transform="matrix(0 0 0 0 0 0)"  >
<g style=""   >
</g>
</g>
<g transform="matrix(0 0 0 0 0 0)"  >
<g style=""   >
</g>
</g>
<g transform="matrix(0 0 0 0 0 0)"  >
<g style=""   >
</g>
</g>
<g transform="matrix(0 0 0 0 0 0)"  >
<g style=""   >
</g>
</g>
<g transform="matrix(0 0 0 0 0 0)"  >
<g style=""   >
</g>
</g>
<g transform="matrix(0 0 0 0 0 0)"  >
<g style=""   >
</g>
</g>
<g transform="matrix(0 0 0 0 0 0)"  >
<g style=""   >
</g>
</g>
<g transform="matrix(0 0 0 0 0 0)"  >
<g style=""   >
</g>
</g>
<g transform="matrix(0 0 0 0 0 0)"  >
<g style=""   >
</g>
</g>
<g transform="matrix(0 0 0 0 0 0)"  >
<g style=""   >
</g>
</g>
<g transform="matrix(NaN NaN NaN NaN 0 0)"  >
<g style=""   >
</g>
</g>
<g transform="matrix(NaN NaN NaN NaN 0 0)"  >
<g style=""   >
</g>
</g>
</svg>