<?xml version="1.0" encoding="UTF-8" standalone="no" ?>
<!DOCTYPE svg PUBLIC "-//W3C//DTD SVG 1.1//EN" "http://www.w3.org/Graphics/SVG/1.1/DTD/svg11.dtd">
<svg xmlns="http://www.w3.org/2000/svg" xmlns:xlink="http://www.w3.org/1999/xlink" version="1.1" width="1080" height="1080" viewBox="0 0 1080 1080" xml:space="preserve">
<desc>Created with Fabric.js 5.2.4</desc>
<defs>
</defs>
<g transform="matrix(1 0 0 1 540 540)" id="6582c393-0638-47d2-8cde-b9125606bb0b"  >
</g>
<g transform="matrix(1 0 0 1 540 540)" id="463b0b8a-e6db-4361-97e5-d266d93c0d15"  >
<rect style="stroke: none; stroke-width: 1; stroke-dasharray: none; stroke-linecap: butt; stroke-dashoffset: 0; stroke-linejoin: miter; stroke-miterlimit: 4; fill: rgb(255,255,255); fill-rule: nonzero; opacity: 1; visibility: hidden;" vector-effect="non-scaling-stroke"  x="-540" y="-540" rx="0" ry="0" width="1080" height="1080" />
</g>
<g transform="matrix(0 0 0 0 0 0)"  >
<g style=""   >
</g>
</g>
<g transform="matrix(9.39 0 0 9.39 502.06 531.85)"  >
<path style="stroke: none; stroke-width: 1; stroke-dasharray: none; stroke-linecap: butt; stroke-dashoffset: 0; stroke-linejoin: miter; stroke-miterlimit: 4; fill: rgb(241,95,44); fill-opacity: 0.1; fill-rule: evenodd; opacity: 1;" vector-effect="non-scaling-stroke"  transform=" translate(-53.47, -56.64)" d="M 73.566 11.89 C 85.8 17.315 88.205 32.608 93.358 44.887 C 97.83500000000001 55.554 104.23100000000001 66.257 101.031 77.32900000000001 C 97.774 88.599 87.881 96.65200000000002 77.051 101.31200000000001 C 66.931 105.66600000000001 56.017 103.47700000000002 45.162000000000006 101.36600000000001 C 32.08200000000001 98.82300000000001 16.346000000000007 99.20300000000002 9.067000000000007 88.09600000000002 C 1.5300000000000074 76.59300000000002 6.055000000000007 61.52600000000002 10.603000000000007 48.62400000000002 C 14.976000000000006 36.216000000000015 22.227000000000007 25.052000000000017 33.63400000000001 18.396000000000015 C 45.70700000000001 11.352000000000015 60.729000000000006 6.194000000000015 73.566 11.888000000000016" stroke-linecap="round" />
</g>
<g transform="matrix(9.39 0 0 9.39 811.33 642.29)"  >
<path style="stroke: rgb(245,145,110); stroke-width: 0; stroke-dasharray: none; stroke-linecap: round; stroke-dashoffset: 0; stroke-linejoin: round; stroke-miterlimit: 4; fill: rgb(245,145,110); fill-rule: nonzero; opacity: 1;" vector-effect="non-scaling-stroke"  transform=" translate(-86.5, -68.5)" d="M 88.635 70.635 L 93.676 68.955 C 93.86989666803379 68.8872950874195 93.99977374588342 68.70437739179894 93.99977374588342 68.499 C 93.99977374588342 68.29362260820105 93.86989666803379 68.11070491258049 93.676 68.04299999999999 L 89.529 66.66699999999999 C 88.96798745932034 66.47106618058154 88.52693381941845 66.03001254067965 88.331 65.469 L 86.955 61.321999999999996 C 86.90528954486568 61.1793114823494 86.79154391280066 61.068191540917496 86.6477335486387 61.02182645083249 C 86.50392318447675 60.97546136074749 86.34669291825311 60.99921748797705 86.223 61.086 C 86.1404958135422 61.14463422816299 86.07772968689846 61.226927594207005 86.04299999999999 61.321999999999996 L 84.66699999999999 65.469 C 84.49389331991993 66.04400101619744 84.04400101619744 66.49389331991993 83.469 66.66699999999999 L 79.32199999999999 68.04299999999999 C 79.1281033319662 68.11070491258049 78.99822625411657 68.29362260820105 78.99822625411657 68.499 C 78.99822625411657 68.70437739179894 79.1281033319662 68.8872950874195 79.32199999999999 68.955 L 83.469 70.331 C 84.03412768519628 70.52033370814314 84.47766629185685 70.96387231480371 84.66699999999999 71.529 L 86.04299999999999 75.676 C 86.11070491258049 75.86989666803379 86.29362260820105 75.99977374588342 86.499 75.99977374588342 C 86.70437739179894 75.99977374588342 86.8872950874195 75.86989666803379 86.955 75.676 z" stroke-linecap="round" />
</g>
<g transform="matrix(9.39 0 0 9.39 567.16 534.29)"  >
<path style="stroke: rgb(245,145,110); stroke-width: 0; stroke-dasharray: none; stroke-linecap: butt; stroke-dashoffset: 0; stroke-linejoin: round; stroke-miterlimit: 4; fill: rgb(42,42,42); fill-rule: nonzero; opacity: 1;" vector-effect="non-scaling-stroke"  transform=" translate(-60.5, -57)" d="M 72 57 C 72 59.176 71.326 61.302 70.062 63.111 C 68.7759514486738 64.93827149066354 66.98126430231216 66.34731476077735 64.901 67.163 C 62.79006947022768 67.99566510737819 60.486308167061544 68.21272630180654 58.257 67.789 C 56.044816009648244 67.37453462438022 53.99967560823348 66.32921748933889 52.367999999999995 64.779 C 50.77253626242596 63.263524871452404 49.67508463831579 61.299131799125554 49.221 59.145999999999994 C 48.777629958173826 57.01095142239225 49.006087571065216 54.7910001533941 49.875 52.791 C 50.76226768632772 50.75922366837247 52.23763955375518 49.039697957917 54.111 47.854 C 56.02064229904586 46.64015740602706 58.23722777161058 45.99693476302581 60.49999999999999 46 C 63.55 46 66.475 47.159 68.632 49.222 C 70.78900000000002 51.285000000000004 72 54.082 72 57 Z" stroke-linecap="round" />
</g>
<g transform="matrix(9.39 0 0 9.39 572.85 537)"  >
<path style="stroke: none; stroke-width: 1; stroke-dasharray: none; stroke-linecap: butt; stroke-dashoffset: 0; stroke-linejoin: miter; stroke-miterlimit: 4; fill: rgb(245,145,110); fill-rule: nonzero; opacity: 1;" vector-effect="non-scaling-stroke"  transform=" translate(-61, -57.18)" d="M 62.006 58.443 C 64.631 58.443 66 56.925999999999995 66 54.919999999999995 C 66 52.943 64.653 51.364 62.006 51.364 L 58.778 51.364 C 58.2257152501692 51.364 57.778 51.8117152501692 57.778 52.364 L 57.778 56.95399999999999 L 56.744 56.95399999999999 C 56.33254786137606 56.95399999999999 55.999 57.287547861376055 55.999 57.699 C 55.999 58.110452138623934 56.33254786137606 58.443999999999996 56.744 58.443999999999996 L 57.778 58.443999999999996 L 57.778 59.419999999999995 L 56.748 59.419999999999995 C 56.33516714950148 59.419999999999995 56.0005 59.75466714950148 56.0005 60.16749999999999 C 56.0005 60.58033285049851 56.33516714950148 60.91499999999999 56.748 60.91499999999999 L 57.778 60.91499999999999 L 57.778 62.12499999999999 C 57.778 62.608249156101934 58.16975084389806 62.99999999999999 58.653 62.99999999999999 C 59.13624915610194 62.99999999999999 59.528 62.608249156101934 59.528 62.12499999999999 L 59.528 60.91499999999999 L 61.344 60.91499999999999 C 61.75683285049852 60.91499999999999 62.091499999999996 60.58033285049851 62.091499999999996 60.16749999999999 C 62.091499999999996 59.75466714950148 61.75683285049852 59.419999999999995 61.344 59.419999999999995 L 59.528 59.419999999999995 L 59.528 58.443 z M 59.528 56.954 L 59.528 52.864000000000004 L 62.006 52.864000000000004 C 63.528 52.864000000000004 64.256 53.74400000000001 64.256 54.926 C 64.256 56.119 63.534 56.954 61.983 56.954 z" stroke-linecap="round" />
</g>
<g transform="matrix(9.39 0 0 9.39 337.25 419.23)"  >
<path style="stroke: rgb(245,145,110); stroke-width: 0; stroke-dasharray: none; stroke-linecap: butt; stroke-dashoffset: 0; stroke-linejoin: miter; stroke-miterlimit: 10; fill: rgb(21,21,21); fill-rule: nonzero; opacity: 1;" vector-effect="non-scaling-stroke"  transform=" translate(-36.02, -44.75)" d="M 30.828 62.523 C 29.848368039967983 62.5214924882672 28.921780704111452 62.07777893037648 28.30645324366966 61.31551049594275 C 27.691125783227868 60.553242061509025 27.452840071503125 59.5539094181847 27.658 58.596000000000004 C 28.231745962511557 55.97151553353625 28.753846813048632 53.3360064508442 29.223999999999975 50.69100000000002 C 30.713 42.631 31.534 38.191 38.464 28.477000000000004 C 39.10890950722136 27.465440848982677 40.258890215005096 26.891729909384818 41.45491926955047 26.98486792093052 C 42.65094832409585 27.078005932476216 43.69825151693187 27.822825301695705 44.17879044348678 28.92202616076417 C 44.6593293700417 30.021227019832633 44.494847913790956 31.295803702907715 43.751 32.237 C 37.655 40.784000000000006 37.013999999999996 44.261 35.614999999999995 51.871 C 35.178 54.181000000000004 34.70399999999999 56.799 33.998 60.007000000000005 C 33.65615211913724 61.481529029217086 32.341635495558954 62.52484884780477 30.827999999999996 62.523 Z" stroke-linecap="round" />
</g>
<g transform="matrix(9.39 0 0 9.39 397.99 413.24)"  >
<path style="stroke: rgb(245,145,110); stroke-width: 0; stroke-dasharray: none; stroke-linecap: butt; stroke-dashoffset: 0; stroke-linejoin: miter; stroke-miterlimit: 10; fill: rgb(26,26,26); fill-rule: nonzero; opacity: 1;" vector-effect="non-scaling-stroke"  transform=" translate(-42.49, -44.11)" d="M 31.906 59.956 L 31.520999999999997 59.956 C 30.665620252712735 59.85642453292203 29.885279448758453 59.41980547968858 29.35292369632031 58.74291025991004 C 28.820567943882168 58.0660150401315 28.58016675814802 57.20475129547479 28.685 56.35 C 29.237 51.679 32.535 35.817 51.913 28.477 C 53.14032385452729 28.011619856942904 54.52711293272799 28.33045218950857 55.42795954268999 29.285113337122503 C 56.32880615265199 30.239774484736433 56.56672920973238 31.642710913308854 56.031 32.841 C 55.67821481884082 33.62678493094151 55.02792508929132 34.24038796114696 54.223 34.547000000000004 C 38.733 40.437000000000005 35.705 52.269000000000005 35.126999999999995 57.09400000000001 C 34.93221400611038 58.72520177226578 33.54978924808513 59.953928373964 31.906999999999996 59.95600000000001 Z" stroke-linecap="round" />
</g>
<g transform="matrix(9.39 0 0 9.39 376.61 564.85)"  >
<path style="stroke: rgb(245,145,110); stroke-width: 0; stroke-dasharray: none; stroke-linecap: butt; stroke-dashoffset: 0; stroke-linejoin: miter; stroke-miterlimit: 4; fill: rgb(42,42,42); fill-rule: nonzero; opacity: 1;" vector-effect="non-scaling-stroke"  transform=" translate(-40.21, -60.26)" d="M 38.84 77.156 C 36.226000000000006 77.96900000000001 33.441 79.57300000000001 30.316000000000003 82.512 L 18.422 70.799 C 24.522 64.70100000000001 26.467 61.848000000000006 27.398000000000003 59.156000000000006 C 27.700000000000003 58.281000000000006 27.901000000000003 57.389 28.110000000000003 56.46300000000001 C 28.21664448647044 55.9774580787126 28.329988625122876 55.49341193364399 28.450000000000006 55.011000000000024 C 28.836000000000002 53.49300000000001 29.430000000000003 51.60800000000001 30.696 48.92100000000001 C 31.32 47.63100000000001 32.635000000000005 46.044000000000004 34.506 44.46300000000001 C 36.366 42.891000000000005 38.719 41.37500000000001 41.349000000000004 40.20600000000001 C 46.626000000000005 37.860000000000014 52.872 36.97000000000001 58.47 39.62500000000001 C 59.507 40.117000000000004 59.938 41.37500000000001 59.666 42.58800000000001 C 59.535 43.17300000000001 59.259 43.61900000000001 58.940999999999995 43.86500000000001 C 58.657999999999994 44.08500000000001 58.279999999999994 44.20100000000001 57.73 44.03600000000001 C 53.498 42.77300000000001 48.519999999999996 42.85500000000001 44.525999999999996 44.85800000000001 C 40.462999999999994 46.89700000000001 37.523999999999994 50.87600000000001 37.419 57.10600000000001 C 37.346 61.52300000000001 40.016 65.92500000000001 43.846999999999994 68.61800000000001 C 47.706999999999994 71.331 52.888999999999996 72.412 57.907 69.968 C 59.479 69.203 60.876999999999995 69.718 61.552 70.551 C 61.892 70.96900000000001 62.042 71.45100000000001 61.99 71.916 C 61.940000000000005 72.369 61.685 72.919 60.997 73.456 C 58.16 75.655 55.722 76.504 53.462 76.779 C 51.56 77.011 49.775000000000006 76.845 47.862 76.666 Q 47.238 76.606 46.592 76.551 C 44.216 76.35300000000001 41.672 76.275 38.839999999999996 77.156 Z" stroke-linecap="round" />
</g>
<g transform="matrix(9.39 0 0 9.39 128 811.55)"  >
<path style="stroke: rgb(245,145,110); stroke-width: 0; stroke-dasharray: none; stroke-linecap: butt; stroke-dashoffset: 0; stroke-linejoin: round; stroke-miterlimit: 4; fill: rgb(21,21,21); fill-rule: nonzero; opacity: 1;" vector-effect="non-scaling-stroke"  transform=" translate(-13.74, -86.52)" d="M 10.823 71.653 L -1.132 83.608 C -1.524 84 -1.3299999999999998 84.83 -0.698 85.461 L 14.8 100.96 C 15.430000000000001 101.592 16.26 101.78599999999999 16.653000000000002 101.393 L 28.608000000000004 89.439 C 29.000000000000004 89.04599999999999 28.806000000000004 88.217 28.174000000000003 87.585 L 12.678 72.086 C 12.046000000000001 71.455 11.216000000000001 71.261 10.824000000000002 71.65299999999999 Z" stroke-linecap="round" />
</g>
<g transform="matrix(9.39 0 0 9.39 206.2 738.52)"  >
<path style="stroke: rgb(21,21,21); stroke-width: 5; stroke-dasharray: none; stroke-linecap: round; stroke-dashoffset: 0; stroke-linejoin: round; stroke-miterlimit: 4; fill: rgb(21,21,21); fill-rule: nonzero; opacity: 1;" vector-effect="non-scaling-stroke"  transform=" translate(-21.8, -78.48)" d="M 30.473 85.3 L 28.15 87.62299999999999 L 12.659999999999998 72.133 L 14.982999999999999 69.81099999999999 C 15.28625512784864 69.50768739795215 15.697591843015864 69.33728332009174 16.1265 69.33728332009174 C 16.555408156984136 69.33728332009174 16.96674487215136 69.50768739795215 17.27 69.81099999999999 L 30.464 83.00399999999999 C 30.76731260204784 83.30725512784863 30.93771667990826 83.71859184301586 30.93771667990826 84.1475 C 30.93771667990826 84.57640815698413 30.76731260204784 84.98774487215135 30.464 85.291 z" stroke-linecap="round" />
</g>
<g transform="matrix(9.39 0 0 9.39 745.58 285.43)"  >
<path style="stroke: rgb(245,145,110); stroke-width: 0; stroke-dasharray: none; stroke-linecap: round; stroke-dashoffset: 0; stroke-linejoin: round; stroke-miterlimit: 4; fill: rgb(245,145,110); fill-rule: nonzero; opacity: 1;" vector-effect="non-scaling-stroke"  transform=" translate(-79.5, -30.5)" d="M 81.268 35.045 C 81.58898743965375 33.65355741462063 82.67621411478238 32.567495625215344 84.068 32.248000000000005 L 89.618 31.021000000000004 C 89.83764657099186 30.978510388314554 89.99630529891814 30.786218535775806 89.99630529891814 30.562500000000004 C 89.99630529891814 30.3387814642242 89.83764657099186 30.146489611685453 89.618 30.104000000000003 L 83.99 28.814000000000004 C 82.60788718255613 28.4652018595492 81.54905218197881 27.353464008098065 81.268 25.956000000000003 L 79.962 20.346000000000004 C 79.90791495821121 20.141572234697698 79.72296135101193 19.999187876900308 79.51150000000001 19.999187876900308 C 79.30003864898808 19.999187876900308 79.1150850417888 20.141572234697698 79.061 20.346000000000004 L 77.77000000000001 25.956000000000003 C 77.44666696861357 27.345579589858662 76.36092552857797 28.43015731988351 74.971 28.752000000000002 L 69.358 30.042 C 69.14342263866095 30.093036428720037 68.99401408004381 30.287517960327826 69 30.508000000000003 C 69.00116487193957 30.722650288524353 69.14910598359046 30.908609786409542 69.358 30.958000000000002 L 74.971 32.248000000000005 C 76.35645035287256 32.57852958568844 77.43848018411481 33.65978626235317 77.77000000000001 35.045 L 79.06000000000002 40.653 C 79.11340460125244 40.85836428678902 79.29880541542423 41.00171828787062 79.51100000000002 41.00171828787062 C 79.72319458457581 41.00171828787062 79.9085953987476 40.85836428678902 79.96200000000002 40.653 z" stroke-linecap="round" />
</g>
<g transform="matrix(0 0 0 0 0 0)"  >
<g style=""   >
</g>
</g>
<g transform="matrix(0 0 0 0 0 0)"  >
<g style=""   >
</g>
</g>
<g transform="matrix(0 0 0 0 0 0)"  >
<g style=""   >
</g>
</g>
<g transform="matrix(0 0 0 0 0 0)"  >
<g style=""   >
</g>
</g>
<g transform="matrix(0 0 0 0 0 0)"  >
<g style=""   >
</g>
</g>
<g transform="matrix(0 0 0 0 0 0)"  >
<g style=""   >
</g>
</g>
<g transform="matrix(NaN NaN NaN NaN 0 0)"  >
<g style=""   >
</g>
</g>
<g transform="matrix(NaN NaN NaN NaN 0 0)"  >
<g style=""   >
</g>
</g>
<g transform="matrix(NaN NaN NaN NaN 0 0)"  >
<g style=""   >
</g>
</g>
<g transform="matrix(NaN NaN NaN NaN 0 0)"  >
<g style=""   >
</g>
</g>
</svg>