<?xml version="1.0" encoding="UTF-8" standalone="no" ?>
<!DOCTYPE svg PUBLIC "-//W3C//DTD SVG 1.1//EN" "http://www.w3.org/Graphics/SVG/1.1/DTD/svg11.dtd">
<svg xmlns="http://www.w3.org/2000/svg" xmlns:xlink="http://www.w3.org/1999/xlink" version="1.1" width="1080" height="1080" viewBox="0 0 1080 1080" xml:space="preserve">
<desc>Created with Fabric.js 5.2.4</desc>
<defs>
</defs>
<g transform="matrix(1 0 0 1 540 540)" id="0fae5617-2113-4302-8dbc-2928014bd3d6"  >
<rect style="stroke: none; stroke-width: 1; stroke-dasharray: none; stroke-linecap: butt; stroke-dashoffset: 0; stroke-linejoin: miter; stroke-miterlimit: 4; fill: rgb(255,255,255); fill-rule: nonzero; opacity: 1; visibility: hidden;" vector-effect="non-scaling-stroke"  x="-540" y="-540" rx="0" ry="0" width="1080" height="1080" />
</g>
<g transform="matrix(1 0 0 1 540 540)" id="49c5c2b2-6633-41da-9b42-65b2c1a17915"  >
</g>
<g transform="matrix(7.45 0 0 7.45 707.1 565.8)"  >
<path style="stroke: none; stroke-width: 1; stroke-dasharray: none; stroke-linecap: butt; stroke-dashoffset: 0; stroke-linejoin: miter; stroke-miterlimit: 4; fill: rgb(255,255,255); fill-rule: nonzero; opacity: 1;" vector-effect="non-scaling-stroke"  transform=" translate(-94.92, -23.46)" d="M 138.12 13.149 L 132.00300000000001 22.631 L 131.39800000000002 13.149000000000001 L 122.57600000000002 13.149000000000001 C 123.38500000000002 10.366000000000001 124.03700000000002 8.133000000000001 124.03700000000002 8.133000000000001 L 124.38200000000002 7.018000000000001 L 117.63200000000002 7.018000000000001 L 117.31300000000002 8.133000000000001 L 115.85100000000001 13.149000000000001 L 108.66100000000002 13.149000000000001 C 102.75100000000002 13.149000000000001 99.42400000000002 14.828000000000001 98.05100000000002 18.004 C 97.25500000000001 15.100000000000001 94.62100000000001 13.149000000000001 90.57800000000002 13.149000000000001 C 87.29297335863085 13.13577548240378 84.11753756017656 14.329722260820695 81.65500000000002 16.504000000000005 C 80.46500000000002 14.455000000000002 78.10600000000001 13.151000000000002 74.81200000000001 13.151000000000002 C 71.3009416748293 13.135762068400604 67.92416175708415 14.499185435869594 65.40800000000002 16.948000000000004 C 64.31000000000002 14.656 61.85400000000001 13.148 58.326000000000015 13.148 C 57.15900000000001 13.151 55.996000000000016 13.302999999999999 54.86700000000001 13.6 L 55.39700000000001 11.773 C 55.406089116272426 11.743994334531896 55.41780428982394 11.71587791800825 55.43200000000001 11.689 L 56.79 7 L 50.066 7 L 45.78 21.734 Q 45.612 22.177000000000003 45.480000000000004 22.631 C 45.290000000000006 23.275 45.162000000000006 23.936 45.098000000000006 24.604 C 44.538000000000004 28.714 46.348000000000006 31.816 51.36600000000001 32.027 Q 52.089000000000006 32.113 52.81700000000001 32.112 C 56.289218493818936 32.07330084276227 59.61595722401362 30.711777047250425 62.11900000000001 28.305 C 63.156000000000006 30.615000000000002 65.56800000000001 32.112 69.29700000000001 32.112 C 72.54081598454037 32.07944343189112 75.66616068328183 30.88846436943381 78.10900000000001 28.754000000000005 C 79.24900000000001 30.804000000000002 81.58600000000001 32.112 85.061 32.112 L 101.918 32.112 C 107.143 32.112 110.095 31.085 111.631 28.854000000000003 C 111.631 30.982000000000003 112.851 32.112 115.941 32.112 C 118.438 32.112 121.777 31.565 126.366 30.438000000000002 L 119.687 39.92100000000001 L 126.411 39.92100000000001 L 144.846 13.149000000000008 z M 58.93 22.63 C 58.301 24.79 56.278 26.532 54.42 26.532 C 52.564 26.532 51.567 24.79 52.195 22.63 C 52.823 20.47 54.848 18.726 56.691 18.726 C 58.534000000000006 18.726 59.559000000000005 20.463 58.93 22.63 M 75.41499999999999 22.63 C 74.78699999999999 24.79 72.76299999999999 26.532 70.90599999999999 26.532 C 69.04899999999999 26.532 68.076 24.79 68.69099999999999 22.63 C 69.30599999999998 20.47 71.344 18.726 73.201 18.726 C 75.05799999999999 18.726 76.03299999999999 20.463 75.41499999999999 22.63 M 84.45499999999998 22.63 C 85.08399999999999 20.468 87.10799999999999 18.726 88.95099999999998 18.726 C 90.79399999999997 18.726 91.80799999999998 20.468 91.17899999999997 22.63 C 90.55099999999997 24.793 88.59299999999998 26.482 86.75799999999997 26.535 L 86.60599999999997 26.535 C 84.79999999999997 26.482 83.83499999999997 24.761 84.45599999999996 22.63 M 106.12699999999995 25.857 C 105.78699999999995 26.649 103.13299999999995 26.53 102.46699999999996 26.54 L 95.92799999999995 26.535 C 96.80944217657758 25.360047017589974 97.47512009606575 24.037833245666615 97.89399999999995 22.630000000000003 Q 97.95699999999995 22.418 98.00799999999995 22.208 C 98.71099999999996 23.208 100.20199999999996 24.110999999999997 103.10099999999996 24.683999999999997 C 105.86499999999995 25.214999999999996 106.36899999999996 25.054 106.12699999999995 25.857 M 112.77699999999996 23.723 C 112.20399999999997 21.494999999999997 109.72099999999996 20.621 106.24099999999996 20.198999999999998 C 104.78499999999995 20.025 103.96599999999995 19.956 104.14899999999996 19.328 C 104.28899999999996 18.839 105.01899999999996 18.736 106.58599999999996 18.736 L 114.23099999999995 18.736 z M 119.49599999999995 23.744999999999997 C 119.49599999999995 23.699999999999996 120.15099999999995 21.479 120.95199999999996 18.729 L 125.21799999999996 18.729 L 125.91499999999996 25.835 C 118.88899999999997 27.327 118.71399999999997 26.925 119.49599999999997 23.745" stroke-linecap="round" />
</g>
<g transform="matrix(7.45 0 0 7.45 121.48 540.03)"  >
<linearGradient id="SVGID_12" gradientUnits="objectBoundingBox" gradientTransform="matrix(1 0 0 1 0 0)"  x1="0.615370404" y1="0.13" x2="0.342376801" y2="1.29365079">
<stop offset="0%" style="stop-color:rgb(239,120,41);stop-opacity: 1"/>
<stop offset="28.000000000000004%" style="stop-color:rgb(240,105,42);stop-opacity: 1"/>
<stop offset="63%" style="stop-color:rgb(241,94,44);stop-opacity: 1"/>
<stop offset="100%" style="stop-color:rgb(241,90,44);stop-opacity: 1"/>
</linearGradient>
<path style="stroke: none; stroke-width: 1; stroke-dasharray: none; stroke-linecap: butt; stroke-dashoffset: 0; stroke-linejoin: miter; stroke-miterlimit: 4; fill: url(#SVGID_12); fill-rule: nonzero; opacity: 1;" vector-effect="non-scaling-stroke"  transform=" translate(-16.31, -20)" d="M 1.038 23.892 L 7.815 0 L 18.215 0 L 16.112 7.407 C 16.09079279337762 7.450306302821013 16.072745708452718 7.4950898098568866 16.058 7.541000000000001 L 10.536 27.1 L 15.69 27.1 C 14.00163433610965 31.39868036954836 12.316633819882547 35.69868168692578 10.635000000001527 39.99999999999873 C 1.1280000000000001 39.892 -1.5389999999999997 32.948 0.7949999999999999 24.732 z M 10.673 40 L 23.208 21.6 L 17.89 21.6 L 22.517 9.814000000000002 C 30.459 10.660000000000002 34.182 17.029000000000003 31.993000000000002 24.730000000000004 C 29.643 33.016 20.13 40 10.866 40 z" stroke-linecap="round" />
</g>
</svg>