<?xml version="1.0" encoding="UTF-8" standalone="no" ?>
<!DOCTYPE svg PUBLIC "-//W3C//DTD SVG 1.1//EN" "http://www.w3.org/Graphics/SVG/1.1/DTD/svg11.dtd">
<svg xmlns="http://www.w3.org/2000/svg" xmlns:xlink="http://www.w3.org/1999/xlink" version="1.1" width="1080" height="1080" viewBox="0 0 1080 1080" xml:space="preserve">
<desc>Created with Fabric.js 5.2.4</desc>
<defs>
</defs>
<g transform="matrix(1 0 0 1 540 540)" id="ed06a2af-c383-4030-8178-efbc35a0b3d1"  >
</g>
<g transform="matrix(1 0 0 1 540 540)" id="de5845ea-785c-455a-9079-87d9982bbfe2"  >
<rect style="stroke: none; stroke-width: 1; stroke-dasharray: none; stroke-linecap: butt; stroke-dashoffset: 0; stroke-linejoin: miter; stroke-miterlimit: 4; fill: rgb(255,255,255); fill-rule: nonzero; opacity: 1; visibility: hidden;" vector-effect="non-scaling-stroke"  x="-540" y="-540" rx="0" ry="0" width="1080" height="1080" />
</g>
<g transform="matrix(0 0 0 0 0 0)"  >
<g style=""   >
</g>
</g>
<g transform="matrix(9.39 0 0 9.39 531.93 534.21)"  >
<path style="stroke: none; stroke-width: 1; stroke-dasharray: none; stroke-linecap: butt; stroke-dashoffset: 0; stroke-linejoin: miter; stroke-miterlimit: 4; fill: rgb(241,95,44); fill-opacity: 0.1; fill-rule: evenodd; opacity: 1;" vector-effect="non-scaling-stroke"  transform=" translate(-56.65, -56.89)" d="M 79.761 18.858 C 91.896 24.511 100.341 36.203 102.67099999999999 49.402 C 105.213 63.811 103.139 80.012 92.28899999999999 89.84700000000001 C 81.80899999999998 99.34700000000001 66.31699999999998 97.013 52.33699999999999 95.02700000000002 C 38.94899999999999 93.12500000000001 24.87699999999999 90.31100000000002 17.19999999999999 79.18000000000002 C 9.134 67.484 6.926 51.39 13.547 38.785 C 19.503 27.45 34.324 26.957 46.573 23.27 C 57.821 19.884999999999998 69.128 13.904 79.761 18.858" stroke-linecap="round" />
</g>
<g transform="matrix(9.39 0 0 9.39 604.49 527.96)"  >
<path style="stroke: rgb(245,145,110); stroke-width: 0; stroke-dasharray: none; stroke-linecap: butt; stroke-dashoffset: 0; stroke-linejoin: miter; stroke-miterlimit: 4; fill: rgb(21,21,21); fill-rule: nonzero; opacity: 1;" vector-effect="non-scaling-stroke"  transform=" translate(-64.48, -56.33)" d="M 41.87 54.909 C 41.87 67.39699999999999 51.994 77.521 64.483 77.521 C 66.27900000000001 77.521 68.02600000000001 77.311 69.70100000000001 76.916 C 72.38300000000001 76.042 80.233 78.942 83.68900000000001 80.317 C 84.21600000000001 80.52699999999999 84.74300000000001 79.92699999999999 84.47800000000001 79.42699999999999 C 83.072 76.78099999999999 80.60000000000001 71.52 81.87700000000001 69.359 C 85.25633294525468 65.30286826037535 87.10320582414076 60.188396604586956 87.09500000000001 54.909000000000006 C 87.09500000000001 42.41999999999999 76.97100000000002 32.297 64.48300000000002 32.297 C 51.994000000000014 32.297 41.87100000000002 42.421 41.87100000000002 54.90899999999999 Z" stroke-linecap="round" />
</g>
<g transform="matrix(9.39 0 0 9.39 436.69 393.68)"  >
<path style="stroke: rgb(245,145,110); stroke-width: 0; stroke-dasharray: none; stroke-linecap: butt; stroke-dashoffset: 0; stroke-linejoin: miter; stroke-miterlimit: 4; fill: rgb(26,26,26); fill-rule: nonzero; opacity: 1;" vector-effect="non-scaling-stroke"  transform=" translate(-46.61, -42.03)" d="M 69.225 40.612 C 69.225 53.101 59.10099999999999 63.225 46.611999999999995 63.225 C 44.815999999999995 63.225 43.068999999999996 63.015 41.39399999999999 62.620000000000005 C 38.71199999999999 61.745000000000005 30.862999999999992 64.646 27.40599999999999 66.02000000000001 C 26.879999999999992 66.23 26.351999999999993 65.63000000000001 26.61799999999999 65.13000000000001 C 28.022999999999993 62.48400000000001 30.49499999999999 57.22300000000001 29.217999999999993 55.06200000000001 C 25.83866705474533 51.00586826037536 23.991794175859255 45.891396604586966 24.000000000000004 40.61200000000001 C 24 28.124 34.124 18 46.612 18 C 59.101 18 69.225 28.124000000000002 69.225 40.611999999999995 Z" stroke-linecap="round" />
</g>
<g transform="matrix(NaN NaN NaN NaN 0 0)"  >
<g style=""   >
</g>
</g>
<g transform="matrix(NaN NaN NaN NaN 0 0)"  >
<g style=""   >
</g>
</g>
<g transform="matrix(NaN NaN NaN NaN 0 0)"  >
<g style=""   >
</g>
</g>
<g transform="matrix(NaN NaN NaN NaN 0 0)"  >
<g style=""   >
</g>
</g>
</svg>