<?xml version="1.0" encoding="UTF-8" standalone="no" ?>
<!DOCTYPE svg PUBLIC "-//W3C//DTD SVG 1.1//EN" "http://www.w3.org/Graphics/SVG/1.1/DTD/svg11.dtd">
<svg xmlns="http://www.w3.org/2000/svg" xmlns:xlink="http://www.w3.org/1999/xlink" version="1.1" width="1080" height="1080" viewBox="0 0 1080 1080" xml:space="preserve">
<desc>Created with Fabric.js 5.2.4</desc>
<defs>
</defs>
<g transform="matrix(1 0 0 1 540 540)" id="ae9642ec-e19a-4c46-ae02-e8dbb0c96b5b"  >
<rect style="stroke: none; stroke-width: 1; stroke-dasharray: none; stroke-linecap: butt; stroke-dashoffset: 0; stroke-linejoin: miter; stroke-miterlimit: 4; fill: rgb(255,255,255); fill-rule: nonzero; opacity: 1; visibility: hidden;" vector-effect="non-scaling-stroke"  x="-540" y="-540" rx="0" ry="0" width="1080" height="1080" />
</g>
<g transform="matrix(1 0 0 1 540 540)" id="8be9cbe1-1df2-48fe-b273-f38b9166afca"  >
</g>
<g transform="matrix(9.39 0 0 9.39 521.89 540)"  >
<path style="stroke: none; stroke-width: 1; stroke-dasharray: none; stroke-linecap: butt; stroke-dashoffset: 0; stroke-linejoin: miter; stroke-miterlimit: 4; fill: rgb(241,95,44); fill-opacity: 0.1; fill-rule: evenodd; opacity: 1;" vector-effect="non-scaling-stroke"  transform=" translate(-55.58, -57.59)" d="M 78.69 19.558 C 90.824 25.211 99.27 36.903999999999996 101.59899999999999 50.103 C 104.14099999999999 64.511 102.067 80.712 91.21699999999998 90.547 C 80.73699999999998 100.047 65.24499999999998 97.714 51.264999999999986 95.727 C 37.87699999999999 93.82600000000001 23.804999999999986 91.012 16.127999999999986 79.881 C 8.061999999999985 68.185 5.853999999999987 52.089 12.474999999999985 39.486 C 18.431 28.15 33.252 27.657 45.501 23.97 C 56.748999999999995 20.585 68.056 14.604999999999999 78.689 19.558" stroke-linecap="round" />
</g>
<g transform="matrix(0 0 0 0 0 0)"  >
<g style=""   >
</g>
</g>
<g transform="matrix(9.39 0 0 9.39 441.35 459.52)"  >
<path style="stroke: none; stroke-width: 1; stroke-dasharray: none; stroke-linecap: butt; stroke-dashoffset: 0; stroke-linejoin: miter; stroke-miterlimit: 4; fill: rgb(21,21,21); fill-rule: nonzero; opacity: 1;" vector-effect="non-scaling-stroke"  transform=" translate(-47, -48.94)" d="M 20.346 29.855 C 20.253662959140172 29.523069696904432 20.297188100580776 29.168040182418395 20.46697207914275 28.868244825797365 C 20.636756057704723 28.568449469176333 20.918845333102112 28.348526676361693 21.251 28.257 L 58.429 17.995 C 59.119 17.805 59.832 18.209 60.024 18.899 L 73.654 68.01599999999999 C 73.74603324975651 68.3477931845807 73.70235749994328 68.70256518013679 73.53259826737869 69.00212926235297 C 73.3628390348141 69.30169334456916 73.08093002790672 69.52146152192225 72.749 69.61299999999999 L 35.571 79.875 C 34.88096510762739 80.06545130291242 34.167102813864375 79.66085474268561 33.976 78.971 z" stroke-linecap="round" />
</g>
<g transform="matrix(9.39 0 0 9.39 441.35 459.52)"  >
<path style="stroke: none; stroke-width: 1; stroke-dasharray: none; stroke-linecap: butt; stroke-dashoffset: 0; stroke-linejoin: miter; stroke-miterlimit: 4; fill: rgb(241,95,44); fill-opacity: 0.1; fill-rule: nonzero; opacity: 1;" vector-effect="non-scaling-stroke"  transform=" translate(-47, -48.94)" d="M 20.346 29.855 C 20.253662959140172 29.523069696904432 20.297188100580776 29.168040182418395 20.46697207914275 28.868244825797365 C 20.636756057704723 28.568449469176333 20.918845333102112 28.348526676361693 21.251 28.257 L 58.429 17.995 C 59.119 17.805 59.832 18.209 60.024 18.899 L 73.654 68.01599999999999 C 73.74603324975651 68.3477931845807 73.70235749994328 68.70256518013679 73.53259826737869 69.00212926235297 C 73.3628390348141 69.30169334456916 73.08093002790672 69.52146152192225 72.749 69.61299999999999 L 35.571 79.875 C 34.88096510762739 80.06545130291242 34.167102813864375 79.66085474268561 33.976 78.971 z" stroke-linecap="round" />
</g>
<g transform="matrix(9.39 0 0 9.39 565.8 453.82)"  >
<rect style="stroke: rgb(245,145,110); stroke-width: 2; stroke-dasharray: none; stroke-linecap: round; stroke-dashoffset: 0; stroke-linejoin: round; stroke-miterlimit: 4; fill: none; fill-rule: nonzero; opacity: 1;" vector-effect="non-scaling-stroke"  x="-23.745" y="-30.89" rx="1.49621" ry="1.49621" width="47.49" height="61.78" />
</g>
<g transform="matrix(9.39 0 0 9.39 441.35 456.56)"  >
<path style="stroke: rgb(245,145,110); stroke-width: 2; stroke-dasharray: none; stroke-linecap: round; stroke-dashoffset: 0; stroke-linejoin: round; stroke-miterlimit: 4; fill: none; fill-rule: nonzero; opacity: 1;" vector-effect="non-scaling-stroke"  transform=" translate(-47, -48.94)" d="M 20.346 29.855 C 20.253662959140172 29.523069696904432 20.297188100580776 29.168040182418395 20.46697207914275 28.868244825797365 C 20.636756057704723 28.568449469176333 20.918845333102112 28.348526676361693 21.251 28.257 L 58.429 17.995 C 59.119 17.805 59.832 18.209 60.024 18.899 L 73.654 68.01599999999999 C 73.74603324975651 68.3477931845807 73.70235749994328 68.70256518013679 73.53259826737869 69.00212926235297 C 73.3628390348141 69.30169334456916 73.08093002790672 69.52146152192225 72.749 69.61299999999999 L 35.571 79.875 C 34.88096510762739 80.06545130291242 34.167102813864375 79.66085474268561 33.976 78.971 z" stroke-linecap="round" />
</g>
<g transform="matrix(9.39 0 0 9.39 565.8 453.82)"  >
<rect style="stroke: none; stroke-width: 1; stroke-dasharray: none; stroke-linecap: butt; stroke-dashoffset: 0; stroke-linejoin: miter; stroke-miterlimit: 4; fill: rgb(21,21,21); fill-rule: nonzero; opacity: 1;" vector-effect="non-scaling-stroke"  x="-23.745" y="-30.89" rx="1.49621" ry="1.49621" width="47.49" height="61.78" />
</g>
<g transform="matrix(9.39 0 0 9.39 544.65 297.94)"  >
<path style="stroke: rgb(245,145,110); stroke-width: 2; stroke-dasharray: none; stroke-linecap: round; stroke-dashoffset: 0; stroke-linejoin: round; stroke-miterlimit: 4; fill: none; fill-rule: nonzero; opacity: 1;" vector-effect="non-scaling-stroke"  transform=" translate(-58, -31.73)" d="M 44.77 32.452 L 46.1 31.124 C 46.491972834200084 30.717946605486627 47.03212241190257 30.48860643429274 47.596500000000006 30.48860643429274 C 48.160877588097435 30.48860643429274 48.70102716579992 30.717946605486627 49.093 31.124 L 50.290000000000006 32.333 C 50.682394180005346 32.73827898694921 51.22238631485787 32.967077383018676 51.786500000000004 32.967077383018676 C 52.35061368514214 32.967077383018676 52.89060581999467 32.73827898694921 53.28300000000001 32.333 L 54.48000000000001 31.122999999999998 C 54.87193972987195 30.71726198153056 55.41187227378582 30.488124216114308 55.97600000000001 30.488124216114308 C 56.5401277262142 30.488124216114308 57.08006027012807 30.71726198153056 57.47200000000001 31.122999999999998 L 58.66900000000001 32.333 C 59.061360416647226 32.73796443192124 59.60113575421662 32.9665611430626 60.165000000000006 32.9665611430626 C 60.7288642457834 32.9665611430626 61.268639583352794 32.73796443192124 61.66100000000001 32.333 L 62.85800000000001 31.122999999999998 C 63.24997283420009 30.716946605486626 63.79012241190258 30.487606434292744 64.35450000000002 30.487606434292744 C 64.91887758809744 30.487606434292744 65.45902716579994 30.716946605486626 65.85100000000001 31.122999999999998 L 67.04800000000002 32.333 C 67.44036041664722 32.73796443192124 67.98013575421663 32.9665611430626 68.54400000000001 32.9665611430626 C 69.1078642457834 32.9665611430626 69.64763958335281 32.73796443192124 70.04000000000002 32.333 L 71.23700000000002 31.122999999999998" stroke-linecap="round" />
</g>
<g transform="matrix(9.39 0 0 9.39 544.65 384.24)"  >
<path style="stroke: rgb(245,145,110); stroke-width: 2; stroke-dasharray: none; stroke-linecap: round; stroke-dashoffset: 0; stroke-linejoin: round; stroke-miterlimit: 4; fill: none; fill-rule: nonzero; opacity: 1;" vector-effect="non-scaling-stroke"  transform=" translate(-58, -40.92)" d="M 44.77 41.644 L 46.1 40.315999999999995 C 46.49239418000534 39.91072101305078 47.03238631485787 39.68192261698132 47.596500000000006 39.68192261698132 C 48.16061368514214 39.68192261698132 48.700605819994664 39.91072101305078 49.093 40.315999999999995 L 50.290000000000006 41.525 C 50.68197283420009 41.93105339451337 51.222122411902575 42.16039356570725 51.786500000000004 42.16039356570725 C 52.35087758809744 42.16039356570725 52.891027165799926 41.93105339451337 53.28300000000001 41.525 L 54.48000000000001 40.315999999999995 C 54.872360416647226 39.91103556807875 55.41213575421662 39.682438856937395 55.97600000000001 39.682438856937395 C 56.5398642457834 39.682438856937395 57.079639583352794 39.91103556807875 57.47200000000001 40.315999999999995 L 58.66900000000001 41.525 C 59.06093972987195 41.930738018469434 59.60087227378582 42.15987578388569 60.165000000000006 42.15987578388569 C 60.7291277262142 42.15987578388569 61.26906027012807 41.930738018469434 61.66100000000001 41.525 L 62.85800000000001 40.315999999999995 C 63.25039418000535 39.91072101305078 63.79038631485788 39.68192261698132 64.35450000000002 39.68192261698132 C 64.91861368514215 39.68192261698132 65.45860581999467 39.91072101305078 65.85100000000001 40.315999999999995 L 67.04800000000002 41.525 C 67.43993972987195 41.93073801846944 67.97987227378583 42.15987578388569 68.54400000000001 42.15987578388569 C 69.1081277262142 42.15987578388569 69.64806027012808 41.93073801846944 70.04000000000002 41.525 L 71.23700000000002 40.315999999999995" stroke-linecap="round" />
</g>
<g transform="matrix(9.39 0 0 9.39 505.31 471.27)"  >
<path style="stroke: rgb(245,145,110); stroke-width: 2; stroke-dasharray: none; stroke-linecap: round; stroke-dashoffset: 0; stroke-linejoin: round; stroke-miterlimit: 4; fill: none; fill-rule: nonzero; opacity: 1;" vector-effect="non-scaling-stroke"  transform=" translate(-53.81, -50.19)" d="M 44.77 50.91 L 46.1 49.583 C 46.49239418000534 49.177721013050785 47.03238631485787 48.94892261698132 47.596500000000006 48.94892261698132 C 48.16061368514214 48.94892261698132 48.700605819994664 49.177721013050785 49.093 49.583 L 50.290000000000006 50.791 C 50.68197283420009 51.19705339451337 51.222122411902575 51.42639356570725 51.786500000000004 51.42639356570725 C 52.35087758809744 51.42639356570725 52.891027165799926 51.19705339451337 53.28300000000001 50.791 L 54.48000000000001 49.583 C 54.872360416647226 49.178035568078755 55.41213575421662 48.9494388569374 55.97600000000001 48.9494388569374 C 56.5398642457834 48.9494388569374 57.079639583352794 49.178035568078755 57.47200000000001 49.583 L 58.66900000000001 50.791 C 59.06093972987195 51.19673801846943 59.60087227378582 51.42587578388569 60.165000000000006 51.42587578388569 C 60.7291277262142 51.42587578388569 61.26906027012807 51.19673801846943 61.66100000000001 50.791 L 62.85800000000001 49.583" stroke-linecap="round" />
</g>
<g transform="matrix(9.39 0 0 9.39 702.92 666.91)"  >
<path style="stroke: rgb(245,145,110); stroke-width: 2; stroke-dasharray: none; stroke-linecap: butt; stroke-dashoffset: 0; stroke-linejoin: round; stroke-miterlimit: 4; fill: rgb(21,21,21); fill-rule: nonzero; opacity: 1;" vector-effect="non-scaling-stroke"  transform=" translate(-74.86, -71.02)" d="M 88.567 63.11 C 90.0679117516087 65.71983503289526 90.72950788319874 68.72826451358726 90.46199999999999 71.727 C 90.201 74.75200000000001 89.02999999999999 77.66900000000001 87.09899999999999 80.107 C 85.15632722082702 82.55276220337952 82.55935936396058 84.39689026624715 79.60999999999999 85.425 C 76.65999999999998 86.454 73.49699999999999 86.615 70.52099999999999 85.889 C 67.54599999999999 85.16199999999999 64.89199999999998 83.579 62.89499999999999 81.342 C 60.89728249424092 79.10226816392976 59.64213134493009 76.29887601997783 59.30199999999999 73.317 C 58.955999999999996 70.32199999999999 59.53099999999999 67.261 60.95199999999999 64.51899999999999 C 62.39259400448534 61.7577936413047 64.59229854235019 59.465798660683994 67.29199999999999 57.91299999999999 C 70.92699999999999 55.81399999999999 75.21 55.18299999999999 79.19999999999999 56.15799999999999 C 83.18999999999998 57.131999999999984 86.55999999999999 59.63299999999999 88.567 63.109999999999985 Z" stroke-linecap="round" />
</g>
<g transform="matrix(9.39 0 0 9.39 465.98 558.23)"  >
<path style="stroke: rgb(245,145,110); stroke-width: 2; stroke-dasharray: none; stroke-linecap: round; stroke-dashoffset: 0; stroke-linejoin: round; stroke-miterlimit: 4; fill: none; fill-rule: nonzero; opacity: 1;" vector-effect="non-scaling-stroke"  transform=" translate(-49.63, -59.45)" d="M 44.77 60.177 L 46.1 58.849 C 46.49239418000534 58.443721013050784 47.03238631485787 58.21492261698132 47.596500000000006 58.21492261698132 C 48.16061368514214 58.21492261698132 48.700605819994664 58.443721013050784 49.093 58.849 L 50.290000000000006 60.058 C 50.68197283420009 60.46405339451337 51.222122411902575 60.693393565707254 51.786500000000004 60.693393565707254 C 52.35087758809744 60.693393565707254 52.891027165799926 60.46405339451337 53.28300000000001 60.058 L 54.48000000000001 58.849" stroke-linecap="round" />
</g>
<g transform="matrix(9.39 0 0 9.39 712.2 635.94)"  >
<path style="stroke: none; stroke-width: 1; stroke-dasharray: none; stroke-linecap: butt; stroke-dashoffset: 0; stroke-linejoin: miter; stroke-miterlimit: 4; fill: rgb(21,21,21); fill-rule: nonzero; opacity: 1;" vector-effect="non-scaling-stroke"  transform=" translate(-75.85, -67.73)" d="M 75.614 62.796 L 71.364 63.934 C 70.73526410000538 64.10285920673928 70.36206845726318 64.74901569129533 70.53 65.378 L 72.523 72.814 L 77.911 71.36999999999999 C 80.27892086489953 70.73570096481933 81.68429903518067 68.30192086489951 81.05000000000001 65.934 C 80.41570096481934 63.566079135100466 77.98192086489954 62.16070096481933 75.614 62.79499999999999" stroke-linecap="round" />
</g>
<g transform="matrix(9.39 0 0 9.39 704.99 666.74)"  >
<path style="stroke: none; stroke-width: 1; stroke-dasharray: none; stroke-linecap: butt; stroke-dashoffset: 0; stroke-linejoin: miter; stroke-miterlimit: 4; fill: rgb(245,145,110); fill-rule: nonzero; opacity: 1;" vector-effect="non-scaling-stroke"  transform=" translate(-75.08, -71.01)" d="M 68.7 72.803 C 68.16891507703006 72.94777496835906 67.85469808892537 73.49454290148643 67.99699466765519 74.02629723438005 C 68.139291246385 74.55805156727368 68.68458782290232 74.87481509413315 69.217 74.735 z M 73.31400000000001 79.62899999999999 C 73.40502580488139 79.97562385523848 73.67457912244363 80.24703621552001 74.02056917298648 80.34044220622754 C 74.36655922352935 80.43384819693505 74.73608022623736 80.33496498865345 74.98917958240672 80.08124366499034 C 75.24227893857606 79.82752234132722 75.34025490218539 79.45775975414834 75.24600000000001 79.112 z M 69.646 76.33299999999998 C 69.29937614476151 76.42402580488137 69.02796378447998 76.69357912244361 68.93455779377246 77.03956917298646 C 68.84115180306495 77.38555922352933 68.94003501134654 77.75508022623734 69.19375633500965 78.0081795824067 C 69.44747765867275 78.26127893857604 69.81724024585165 78.35925490218537 70.163 78.26499999999999 z M 77.802 76.21899999999998 C 78.33550706833655 76.0759582497938 78.65204175020618 75.52750706833652 78.50900000000001 74.99399999999997 C 78.36595824979383 74.46049293166344 77.81750706833655 74.1439582497938 77.284 74.28699999999998 z M 71.622 64.9 L 75.872 63.761 L 75.355 61.830000000000005 L 71.105 62.968 z M 73.489 72.555 L 71.49600000000001 65.119 L 69.56400000000001 65.636 L 71.557 73.073 z M 77.652 70.40400000000001 L 72.264 71.84800000000001 L 72.78099999999999 73.78000000000002 L 78.16999999999999 72.33600000000001 z M 72.264 71.84800000000001 L 68.69999999999999 72.80300000000001 L 69.21699999999998 74.73500000000001 L 72.78099999999998 73.78000000000002 z M 75.246 79.11200000000001 L 74.43499999999999 76.08600000000001 L 72.50299999999999 76.60300000000001 L 73.31299999999999 79.629 z M 74.43499999999999 76.08600000000001 L 73.48799999999999 72.555 L 71.55699999999999 73.072 L 72.50299999999999 76.60300000000001 z M 73.21 75.37800000000001 L 69.64599999999999 76.33400000000002 L 70.16299999999998 78.26500000000001 L 73.72799999999998 77.31000000000002 z M 73.728 77.31000000000002 L 77.80199999999999 76.21900000000002 L 77.28399999999999 74.28700000000002 L 73.21 75.37800000000001 z M 80.08399999999999 66.19300000000001 C 80.57439397783959 68.02729992530064 79.48588371901612 69.91205185782765 77.65199999999999 70.40400000000001 L 78.16999999999999 72.33600000000001 C 81.07008030898237 71.5576229605068 82.79104568738192 68.57670503589276 82.01499999999999 65.67600000000002 z M 75.87199999999999 63.76100000000001 C 77.70662395141066 63.26996742162643 79.59206579649938 64.35861760378592 80.08399999999999 66.19300000000001 L 82.01499999999999 65.67500000000001 C 81.23662296050678 62.77491969101763 78.25570503589273 61.05395431261807 75.35499999999999 61.83000000000001 z M 71.10499999999999 62.96800000000001 C 69.94361747784508 63.28030207510801 69.25452821582722 64.47412684852596 69.56499999999998 65.63600000000001 L 71.49599999999998 65.11900000000001 C 71.47110373423345 65.02383450340284 71.5272149989297 64.92630778143081 71.62199999999999 64.90000000000002 z" stroke-linecap="round" />
</g>
<g transform="matrix(NaN NaN NaN NaN 0 0)"  >
<g style=""   >
</g>
</g>
<g transform="matrix(NaN NaN NaN NaN 0 0)"  >
<g style=""   >
</g>
</g>
<g transform="matrix(NaN NaN NaN NaN 0 0)"  >
<g style=""   >
</g>
</g>
<g transform="matrix(NaN NaN NaN NaN 0 0)"  >
<g style=""   >
</g>
</g>
</svg>